<svg width="68" height="69" viewBox="0 0 68 69" fill="none" xmlns="http://www.w3.org/2000/svg">
<mask id="path-1-outside-1_38_2617" maskUnits="userSpaceOnUse" x="-0.5" y="0.395996" width="69" height="69" fill="black">
<rect fill="white" x="-0.5" y="0.395996" width="69" height="69"/>
<path d="M67.5 7.92513V61.8652C67.465 61.9627 67.4126 62.0537 67.3951 62.1555C66.7221 66.0331 64.411 68.3683 61.2102 68.3922C60.0547 68.4008 58.8991 68.3922 57.7419 68.3922C40.7971 68.3922 23.8524 68.3943 6.90588 68.3922C3.1701 68.3922 0.507678 65.2034 0.504182 60.6867C0.49719 43.4887 0.49719 26.2951 0.518167 9.10141C0.518167 8.22407 0.640537 7.31207 0.862551 6.48023C1.71564 3.28282 3.99347 1.396 6.90938 1.396C24.9659 1.396 43.0243 1.396 61.0808 1.396C61.2556 1.396 61.4304 1.396 61.6035 1.40466C64.0142 1.55847 65.7746 2.9882 66.8602 5.64188C67.1504 6.35242 67.2902 7.15827 67.4982 7.92079L67.5 7.92513ZM12.4632 65.1038C12.4632 61.8782 12.4632 58.7393 12.4632 55.6003C12.4632 53.1373 12.4492 50.6721 12.4685 48.209C12.4877 45.8023 13.7062 44.3141 15.6291 44.3076C17.0469 44.3033 18.4646 44.3054 19.8806 44.3076C21.9801 44.3098 23.1531 45.7655 23.1549 48.3823C23.1584 53.6355 23.1549 58.8866 23.1549 64.1398C23.1549 64.4539 23.1549 64.768 23.1549 65.0994H27.0725C27.0725 64.7637 27.0725 64.4734 27.0725 64.1831C27.0725 61.4211 27.069 58.6591 27.0759 55.8993C27.0759 55.4964 27.0987 55.0869 27.1511 54.6905C27.3312 53.3193 28.0199 52.3791 28.9377 51.6404C27.8172 48.2957 26.7141 45.003 25.611 41.7124C24.6023 38.7035 24.9537 36.7257 26.8382 34.4771C29.1877 31.6739 31.3991 28.73 32.8571 25.0451C33.0861 24.4667 33.4776 24.157 34.0126 24.157C34.5737 24.157 34.9461 24.4927 35.2153 25.0885C35.6646 26.0763 36.0422 27.1486 36.6208 28.0043C38.2011 30.3417 39.8321 32.6336 41.5174 34.8562C42.9036 36.6845 43.3319 38.8551 42.5732 41.1925C42.1834 42.3948 41.7743 43.5906 41.3758 44.7885C40.6153 47.0826 39.8566 49.3767 39.0874 51.6924C40.5139 52.7452 40.9719 54.3179 40.9387 56.2546C40.8915 58.9061 40.9265 61.5597 40.9265 64.2134V65.0799H44.5923C44.5923 64.7203 44.5923 64.4257 44.5923 64.1289C44.5923 60.2297 44.5574 56.3304 44.6203 52.4333C44.6343 51.6231 44.8511 50.6526 45.2601 50.0569C45.7566 49.3333 45.8632 48.6445 45.8405 47.7931C45.7968 46.0839 46.3999 44.8427 47.6236 44.039C47.7984 43.9242 47.968 43.5776 47.9767 43.3306C48.0152 42.2496 47.9855 41.1665 47.996 40.0834C48.0065 39.0089 48.5099 38.32 49.2721 38.3027C50.057 38.2854 50.5937 38.9959 50.6077 40.1029C50.6217 41.1578 50.6287 42.215 50.6025 43.2699C50.592 43.7097 50.6986 43.9372 51.0307 44.1235C51.8716 44.5957 52.4467 45.4189 52.639 46.5367C52.7597 47.2407 52.6985 47.9902 52.7544 48.7159C52.7754 48.9867 52.8366 49.3268 52.9834 49.4936C53.7509 50.3645 54.0236 51.4368 54.0183 52.6954C54.0008 56.5405 54.0131 60.3835 54.0131 64.2286C54.0131 64.5167 54.0131 64.8026 54.0131 65.1471C56.4308 65.1471 58.7593 65.1514 61.0896 65.1471C63.4653 65.1428 64.8813 63.3946 64.8813 60.4614C64.883 48.3325 64.8813 36.2036 64.8813 24.0725C64.8813 23.7865 64.8813 23.5028 64.8813 23.219H3.1194C3.1194 23.5482 3.1194 23.8385 3.1194 24.1288C3.1194 36.2036 3.1194 48.2784 3.1194 60.3553C3.1194 60.6261 3.11416 60.8969 3.12989 61.1677C3.24003 63.126 4.49694 64.9716 6.04405 65.0713C8.14881 65.2077 10.2623 65.1059 12.4632 65.1059V65.1038ZM3.12814 19.8634H64.8725C64.8725 16.066 64.8725 12.3291 64.8708 8.5945C64.8708 8.46019 64.8481 8.32589 64.8271 8.19374C64.474 5.96032 63.0964 4.6454 61.0861 4.6454C43.0278 4.6454 24.9712 4.6454 6.91287 4.6454C6.73806 4.6454 6.56324 4.6454 6.39018 4.65623C4.68224 4.75371 3.18234 6.46939 3.14563 8.59667C3.08269 12.3291 3.12814 16.066 3.12814 19.8656V19.8634ZM32.6927 51.1162C32.6927 48.4928 32.6875 45.8976 32.6962 43.3046C32.6997 42.189 33.2277 41.4979 34.0266 41.5153C34.7957 41.5304 35.2992 42.2085 35.3062 43.2873C35.3167 45.2348 35.3097 47.1844 35.3097 49.1319C35.3097 49.8012 35.3097 50.4728 35.3097 51.257C35.7992 51.0663 36.3166 51.5581 36.5946 50.7067C37.7711 47.1021 38.9773 43.5104 40.166 39.9122C40.5104 38.8703 40.3356 37.9604 39.6783 37.1827C39.1259 36.5285 38.5543 35.896 38.0508 35.1876C36.6715 33.2466 35.3254 31.271 33.9496 29.2867C33.9426 29.2975 33.864 29.3842 33.8063 29.4903C32.2819 32.2826 30.4429 34.7327 28.471 37.0398C27.6056 38.0514 27.4728 38.8074 27.9255 40.1614C29.0531 43.5299 30.2121 46.8811 31.2942 50.2713C31.5739 51.1465 31.9428 51.3999 32.6945 51.1205L32.6927 51.1162ZM38.313 65.1189V64.3217C38.313 61.5359 38.313 58.7523 38.313 55.9664C38.313 54.7555 38.0892 54.4652 37.1313 54.4631C35.0405 54.4566 32.9497 54.4566 30.8589 54.4631C29.9272 54.4652 29.6912 54.7598 29.6894 55.8993C29.6859 58.7393 29.6877 61.5771 29.6894 64.417C29.6894 64.6488 29.7139 64.8785 29.7279 65.1211H38.3113L38.313 65.1189ZM20.5379 65.1081C20.5379 64.1528 20.5379 63.2906 20.5379 62.4263C20.5379 57.7731 20.5379 53.1178 20.5379 48.4647C20.5379 47.9859 20.5711 47.5353 19.9942 47.544C18.5345 47.5678 17.0731 47.5332 15.6151 47.5765C15.4351 47.5808 15.1344 47.8863 15.1099 48.0899C15.0417 48.6899 15.0854 49.3095 15.0854 49.9745C15.7043 49.9745 16.2252 49.9659 16.7462 49.9745C17.6535 49.9919 18.2408 50.6179 18.2513 51.5646C18.2636 52.5416 17.657 53.2001 16.7182 53.2174C16.199 53.2261 15.6798 53.2174 15.1361 53.2174V55.2212C15.7585 55.2212 16.3231 55.1974 16.8878 55.2277C17.6902 55.2689 18.2443 55.9448 18.2513 56.8416C18.2583 57.7666 17.6797 58.4403 16.8406 58.4641C16.2812 58.4793 15.72 58.4663 15.1344 58.4663V60.5069C15.7095 60.5069 16.2287 60.4961 16.7497 60.5091C17.6657 60.5329 18.2443 61.1547 18.2531 62.1035C18.2636 63.0805 17.6639 63.7282 16.7165 63.7498C16.199 63.7607 15.6798 63.7498 15.1291 63.7498V65.0994H20.5379V65.1081ZM51.3961 65.1038C51.3961 60.8362 51.3926 56.6705 51.4014 52.5047C51.4014 52.0065 51.1933 51.9329 50.8629 51.935C49.8595 51.948 48.8561 51.9762 47.8544 51.9242C47.3142 51.896 47.1971 52.1451 47.2006 52.7669C47.2198 56.664 47.2093 60.5633 47.2128 64.4604C47.2128 64.6683 47.239 64.8763 47.2548 65.1038H51.3961ZM50.1986 48.651C50.106 48.0877 50.1497 47.3317 49.9119 47.1519C49.592 46.9093 48.9557 46.9266 48.6428 47.1844C48.4138 47.3729 48.4872 48.1267 48.4225 48.651H50.1986Z"/>
</mask>
<path d="M67.5 7.92513V61.8652C67.465 61.9627 67.4126 62.0537 67.3951 62.1555C66.7221 66.0331 64.411 68.3683 61.2102 68.3922C60.0547 68.4008 58.8991 68.3922 57.7419 68.3922C40.7971 68.3922 23.8524 68.3943 6.90588 68.3922C3.1701 68.3922 0.507678 65.2034 0.504182 60.6867C0.49719 43.4887 0.49719 26.2951 0.518167 9.10141C0.518167 8.22407 0.640537 7.31207 0.862551 6.48023C1.71564 3.28282 3.99347 1.396 6.90938 1.396C24.9659 1.396 43.0243 1.396 61.0808 1.396C61.2556 1.396 61.4304 1.396 61.6035 1.40466C64.0142 1.55847 65.7746 2.9882 66.8602 5.64188C67.1504 6.35242 67.2902 7.15827 67.4982 7.92079L67.5 7.92513ZM12.4632 65.1038C12.4632 61.8782 12.4632 58.7393 12.4632 55.6003C12.4632 53.1373 12.4492 50.6721 12.4685 48.209C12.4877 45.8023 13.7062 44.3141 15.6291 44.3076C17.0469 44.3033 18.4646 44.3054 19.8806 44.3076C21.9801 44.3098 23.1531 45.7655 23.1549 48.3823C23.1584 53.6355 23.1549 58.8866 23.1549 64.1398C23.1549 64.4539 23.1549 64.768 23.1549 65.0994H27.0725C27.0725 64.7637 27.0725 64.4734 27.0725 64.1831C27.0725 61.4211 27.069 58.6591 27.0759 55.8993C27.0759 55.4964 27.0987 55.0869 27.1511 54.6905C27.3312 53.3193 28.0199 52.3791 28.9377 51.6404C27.8172 48.2957 26.7141 45.003 25.611 41.7124C24.6023 38.7035 24.9537 36.7257 26.8382 34.4771C29.1877 31.6739 31.3991 28.73 32.8571 25.0451C33.0861 24.4667 33.4776 24.157 34.0126 24.157C34.5737 24.157 34.9461 24.4927 35.2153 25.0885C35.6646 26.0763 36.0422 27.1486 36.6208 28.0043C38.2011 30.3417 39.8321 32.6336 41.5174 34.8562C42.9036 36.6845 43.3319 38.8551 42.5732 41.1925C42.1834 42.3948 41.7743 43.5906 41.3758 44.7885C40.6153 47.0826 39.8566 49.3767 39.0874 51.6924C40.5139 52.7452 40.9719 54.3179 40.9387 56.2546C40.8915 58.9061 40.9265 61.5597 40.9265 64.2134V65.0799H44.5923C44.5923 64.7203 44.5923 64.4257 44.5923 64.1289C44.5923 60.2297 44.5574 56.3304 44.6203 52.4333C44.6343 51.6231 44.8511 50.6526 45.2601 50.0569C45.7566 49.3333 45.8632 48.6445 45.8405 47.7931C45.7968 46.0839 46.3999 44.8427 47.6236 44.039C47.7984 43.9242 47.968 43.5776 47.9767 43.3306C48.0152 42.2496 47.9855 41.1665 47.996 40.0834C48.0065 39.0089 48.5099 38.32 49.2721 38.3027C50.057 38.2854 50.5937 38.9959 50.6077 40.1029C50.6217 41.1578 50.6287 42.215 50.6025 43.2699C50.592 43.7097 50.6986 43.9372 51.0307 44.1235C51.8716 44.5957 52.4467 45.4189 52.639 46.5367C52.7597 47.2407 52.6985 47.9902 52.7544 48.7159C52.7754 48.9867 52.8366 49.3268 52.9834 49.4936C53.7509 50.3645 54.0236 51.4368 54.0183 52.6954C54.0008 56.5405 54.0131 60.3835 54.0131 64.2286C54.0131 64.5167 54.0131 64.8026 54.0131 65.1471C56.4308 65.1471 58.7593 65.1514 61.0896 65.1471C63.4653 65.1428 64.8813 63.3946 64.8813 60.4614C64.883 48.3325 64.8813 36.2036 64.8813 24.0725C64.8813 23.7865 64.8813 23.5028 64.8813 23.219H3.1194C3.1194 23.5482 3.1194 23.8385 3.1194 24.1288C3.1194 36.2036 3.1194 48.2784 3.1194 60.3553C3.1194 60.6261 3.11416 60.8969 3.12989 61.1677C3.24003 63.126 4.49694 64.9716 6.04405 65.0713C8.14881 65.2077 10.2623 65.1059 12.4632 65.1059V65.1038ZM3.12814 19.8634H64.8725C64.8725 16.066 64.8725 12.3291 64.8708 8.5945C64.8708 8.46019 64.8481 8.32589 64.8271 8.19374C64.474 5.96032 63.0964 4.6454 61.0861 4.6454C43.0278 4.6454 24.9712 4.6454 6.91287 4.6454C6.73806 4.6454 6.56324 4.6454 6.39018 4.65623C4.68224 4.75371 3.18234 6.46939 3.14563 8.59667C3.08269 12.3291 3.12814 16.066 3.12814 19.8656V19.8634ZM32.6927 51.1162C32.6927 48.4928 32.6875 45.8976 32.6962 43.3046C32.6997 42.189 33.2277 41.4979 34.0266 41.5153C34.7957 41.5304 35.2992 42.2085 35.3062 43.2873C35.3167 45.2348 35.3097 47.1844 35.3097 49.1319C35.3097 49.8012 35.3097 50.4728 35.3097 51.257C35.7992 51.0663 36.3166 51.5581 36.5946 50.7067C37.7711 47.1021 38.9773 43.5104 40.166 39.9122C40.5104 38.8703 40.3356 37.9604 39.6783 37.1827C39.1259 36.5285 38.5543 35.896 38.0508 35.1876C36.6715 33.2466 35.3254 31.271 33.9496 29.2867C33.9426 29.2975 33.864 29.3842 33.8063 29.4903C32.2819 32.2826 30.4429 34.7327 28.471 37.0398C27.6056 38.0514 27.4728 38.8074 27.9255 40.1614C29.0531 43.5299 30.2121 46.8811 31.2942 50.2713C31.5739 51.1465 31.9428 51.3999 32.6945 51.1205L32.6927 51.1162ZM38.313 65.1189V64.3217C38.313 61.5359 38.313 58.7523 38.313 55.9664C38.313 54.7555 38.0892 54.4652 37.1313 54.4631C35.0405 54.4566 32.9497 54.4566 30.8589 54.4631C29.9272 54.4652 29.6912 54.7598 29.6894 55.8993C29.6859 58.7393 29.6877 61.5771 29.6894 64.417C29.6894 64.6488 29.7139 64.8785 29.7279 65.1211H38.3113L38.313 65.1189ZM20.5379 65.1081C20.5379 64.1528 20.5379 63.2906 20.5379 62.4263C20.5379 57.7731 20.5379 53.1178 20.5379 48.4647C20.5379 47.9859 20.5711 47.5353 19.9942 47.544C18.5345 47.5678 17.0731 47.5332 15.6151 47.5765C15.4351 47.5808 15.1344 47.8863 15.1099 48.0899C15.0417 48.6899 15.0854 49.3095 15.0854 49.9745C15.7043 49.9745 16.2252 49.9659 16.7462 49.9745C17.6535 49.9919 18.2408 50.6179 18.2513 51.5646C18.2636 52.5416 17.657 53.2001 16.7182 53.2174C16.199 53.2261 15.6798 53.2174 15.1361 53.2174V55.2212C15.7585 55.2212 16.3231 55.1974 16.8878 55.2277C17.6902 55.2689 18.2443 55.9448 18.2513 56.8416C18.2583 57.7666 17.6797 58.4403 16.8406 58.4641C16.2812 58.4793 15.72 58.4663 15.1344 58.4663V60.5069C15.7095 60.5069 16.2287 60.4961 16.7497 60.5091C17.6657 60.5329 18.2443 61.1547 18.2531 62.1035C18.2636 63.0805 17.6639 63.7282 16.7165 63.7498C16.199 63.7607 15.6798 63.7498 15.1291 63.7498V65.0994H20.5379V65.1081ZM51.3961 65.1038C51.3961 60.8362 51.3926 56.6705 51.4014 52.5047C51.4014 52.0065 51.1933 51.9329 50.8629 51.935C49.8595 51.948 48.8561 51.9762 47.8544 51.9242C47.3142 51.896 47.1971 52.1451 47.2006 52.7669C47.2198 56.664 47.2093 60.5633 47.2128 64.4604C47.2128 64.6683 47.239 64.8763 47.2548 65.1038H51.3961ZM50.1986 48.651C50.106 48.0877 50.1497 47.3317 49.9119 47.1519C49.592 46.9093 48.9557 46.9266 48.6428 47.1844C48.4138 47.3729 48.4872 48.1267 48.4225 48.651H50.1986Z" fill="#FD6F00"/>
<path d="M67.5 7.92513V61.8652C67.465 61.9627 67.4126 62.0537 67.3951 62.1555C66.7221 66.0331 64.411 68.3683 61.2102 68.3922C60.0547 68.4008 58.8991 68.3922 57.7419 68.3922C40.7971 68.3922 23.8524 68.3943 6.90588 68.3922C3.1701 68.3922 0.507678 65.2034 0.504182 60.6867C0.49719 43.4887 0.49719 26.2951 0.518167 9.10141C0.518167 8.22407 0.640537 7.31207 0.862551 6.48023C1.71564 3.28282 3.99347 1.396 6.90938 1.396C24.9659 1.396 43.0243 1.396 61.0808 1.396C61.2556 1.396 61.4304 1.396 61.6035 1.40466C64.0142 1.55847 65.7746 2.9882 66.8602 5.64188C67.1504 6.35242 67.2902 7.15827 67.4982 7.92079L67.5 7.92513ZM12.4632 65.1038C12.4632 61.8782 12.4632 58.7393 12.4632 55.6003C12.4632 53.1373 12.4492 50.6721 12.4685 48.209C12.4877 45.8023 13.7062 44.3141 15.6291 44.3076C17.0469 44.3033 18.4646 44.3054 19.8806 44.3076C21.9801 44.3098 23.1531 45.7655 23.1549 48.3823C23.1584 53.6355 23.1549 58.8866 23.1549 64.1398C23.1549 64.4539 23.1549 64.768 23.1549 65.0994H27.0725C27.0725 64.7637 27.0725 64.4734 27.0725 64.1831C27.0725 61.4211 27.069 58.6591 27.0759 55.8993C27.0759 55.4964 27.0987 55.0869 27.1511 54.6905C27.3312 53.3193 28.0199 52.3791 28.9377 51.6404C27.8172 48.2957 26.7141 45.003 25.611 41.7124C24.6023 38.7035 24.9537 36.7257 26.8382 34.4771C29.1877 31.6739 31.3991 28.73 32.8571 25.0451C33.0861 24.4667 33.4776 24.157 34.0126 24.157C34.5737 24.157 34.9461 24.4927 35.2153 25.0885C35.6646 26.0763 36.0422 27.1486 36.6208 28.0043C38.2011 30.3417 39.8321 32.6336 41.5174 34.8562C42.9036 36.6845 43.3319 38.8551 42.5732 41.1925C42.1834 42.3948 41.7743 43.5906 41.3758 44.7885C40.6153 47.0826 39.8566 49.3767 39.0874 51.6924C40.5139 52.7452 40.9719 54.3179 40.9387 56.2546C40.8915 58.9061 40.9265 61.5597 40.9265 64.2134V65.0799H44.5923C44.5923 64.7203 44.5923 64.4257 44.5923 64.1289C44.5923 60.2297 44.5574 56.3304 44.6203 52.4333C44.6343 51.6231 44.8511 50.6526 45.2601 50.0569C45.7566 49.3333 45.8632 48.6445 45.8405 47.7931C45.7968 46.0839 46.3999 44.8427 47.6236 44.039C47.7984 43.9242 47.968 43.5776 47.9767 43.3306C48.0152 42.2496 47.9855 41.1665 47.996 40.0834C48.0065 39.0089 48.5099 38.32 49.2721 38.3027C50.057 38.2854 50.5937 38.9959 50.6077 40.1029C50.6217 41.1578 50.6287 42.215 50.6025 43.2699C50.592 43.7097 50.6986 43.9372 51.0307 44.1235C51.8716 44.5957 52.4467 45.4189 52.639 46.5367C52.7597 47.2407 52.6985 47.9902 52.7544 48.7159C52.7754 48.9867 52.8366 49.3268 52.9834 49.4936C53.7509 50.3645 54.0236 51.4368 54.0183 52.6954C54.0008 56.5405 54.0131 60.3835 54.0131 64.2286C54.0131 64.5167 54.0131 64.8026 54.0131 65.1471C56.4308 65.1471 58.7593 65.1514 61.0896 65.1471C63.4653 65.1428 64.8813 63.3946 64.8813 60.4614C64.883 48.3325 64.8813 36.2036 64.8813 24.0725C64.8813 23.7865 64.8813 23.5028 64.8813 23.219H3.1194C3.1194 23.5482 3.1194 23.8385 3.1194 24.1288C3.1194 36.2036 3.1194 48.2784 3.1194 60.3553C3.1194 60.6261 3.11416 60.8969 3.12989 61.1677C3.24003 63.126 4.49694 64.9716 6.04405 65.0713C8.14881 65.2077 10.2623 65.1059 12.4632 65.1059V65.1038ZM3.12814 19.8634H64.8725C64.8725 16.066 64.8725 12.3291 64.8708 8.5945C64.8708 8.46019 64.8481 8.32589 64.8271 8.19374C64.474 5.96032 63.0964 4.6454 61.0861 4.6454C43.0278 4.6454 24.9712 4.6454 6.91287 4.6454C6.73806 4.6454 6.56324 4.6454 6.39018 4.65623C4.68224 4.75371 3.18234 6.46939 3.14563 8.59667C3.08269 12.3291 3.12814 16.066 3.12814 19.8656V19.8634ZM32.6927 51.1162C32.6927 48.4928 32.6875 45.8976 32.6962 43.3046C32.6997 42.189 33.2277 41.4979 34.0266 41.5153C34.7957 41.5304 35.2992 42.2085 35.3062 43.2873C35.3167 45.2348 35.3097 47.1844 35.3097 49.1319C35.3097 49.8012 35.3097 50.4728 35.3097 51.257C35.7992 51.0663 36.3166 51.5581 36.5946 50.7067C37.7711 47.1021 38.9773 43.5104 40.166 39.9122C40.5104 38.8703 40.3356 37.9604 39.6783 37.1827C39.1259 36.5285 38.5543 35.896 38.0508 35.1876C36.6715 33.2466 35.3254 31.271 33.9496 29.2867C33.9426 29.2975 33.864 29.3842 33.8063 29.4903C32.2819 32.2826 30.4429 34.7327 28.471 37.0398C27.6056 38.0514 27.4728 38.8074 27.9255 40.1614C29.0531 43.5299 30.2121 46.8811 31.2942 50.2713C31.5739 51.1465 31.9428 51.3999 32.6945 51.1205L32.6927 51.1162ZM38.313 65.1189V64.3217C38.313 61.5359 38.313 58.7523 38.313 55.9664C38.313 54.7555 38.0892 54.4652 37.1313 54.4631C35.0405 54.4566 32.9497 54.4566 30.8589 54.4631C29.9272 54.4652 29.6912 54.7598 29.6894 55.8993C29.6859 58.7393 29.6877 61.5771 29.6894 64.417C29.6894 64.6488 29.7139 64.8785 29.7279 65.1211H38.3113L38.313 65.1189ZM20.5379 65.1081C20.5379 64.1528 20.5379 63.2906 20.5379 62.4263C20.5379 57.7731 20.5379 53.1178 20.5379 48.4647C20.5379 47.9859 20.5711 47.5353 19.9942 47.544C18.5345 47.5678 17.0731 47.5332 15.6151 47.5765C15.4351 47.5808 15.1344 47.8863 15.1099 48.0899C15.0417 48.6899 15.0854 49.3095 15.0854 49.9745C15.7043 49.9745 16.2252 49.9659 16.7462 49.9745C17.6535 49.9919 18.2408 50.6179 18.2513 51.5646C18.2636 52.5416 17.657 53.2001 16.7182 53.2174C16.199 53.2261 15.6798 53.2174 15.1361 53.2174V55.2212C15.7585 55.2212 16.3231 55.1974 16.8878 55.2277C17.6902 55.2689 18.2443 55.9448 18.2513 56.8416C18.2583 57.7666 17.6797 58.4403 16.8406 58.4641C16.2812 58.4793 15.72 58.4663 15.1344 58.4663V60.5069C15.7095 60.5069 16.2287 60.4961 16.7497 60.5091C17.6657 60.5329 18.2443 61.1547 18.2531 62.1035C18.2636 63.0805 17.6639 63.7282 16.7165 63.7498C16.199 63.7607 15.6798 63.7498 15.1291 63.7498V65.0994H20.5379V65.1081ZM51.3961 65.1038C51.3961 60.8362 51.3926 56.6705 51.4014 52.5047C51.4014 52.0065 51.1933 51.9329 50.8629 51.935C49.8595 51.948 48.8561 51.9762 47.8544 51.9242C47.3142 51.896 47.1971 52.1451 47.2006 52.7669C47.2198 56.664 47.2093 60.5633 47.2128 64.4604C47.2128 64.6683 47.239 64.8763 47.2548 65.1038H51.3961ZM50.1986 48.651C50.106 48.0877 50.1497 47.3317 49.9119 47.1519C49.592 46.9093 48.9557 46.9266 48.6428 47.1844C48.4138 47.3729 48.4872 48.1267 48.4225 48.651H50.1986Z" stroke="#FD6F00" stroke-width="0.906582" mask="url(#path-1-outside-1_38_2617)"/>
<path d="M20.4609 7.87501C22.6478 7.87067 24.4239 10.0586 24.4291 12.7643C24.4344 15.4526 22.646 17.673 20.4713 17.6774C18.2984 17.6817 16.5066 15.4678 16.5031 12.7773C16.4996 10.0759 18.2739 7.87934 20.4609 7.87501ZM20.4801 11.1287C19.7476 11.1201 19.1428 11.8371 19.1253 12.7339C19.106 13.6481 19.7406 14.4366 20.4853 14.4236C21.2038 14.4106 21.8087 13.6524 21.8087 12.7664C21.8087 11.8718 21.2091 11.1352 20.4801 11.1266V11.1287Z" fill="white"/>
<path d="M13.7428 12.7949C13.7341 15.5135 11.9737 17.6841 9.78153 17.6755C7.59984 17.6668 5.8517 15.468 5.85695 12.745C5.86394 10.0264 7.62781 7.86011 9.82173 7.87311C12.0191 7.8861 13.7516 10.0589 13.7428 12.7949ZM8.47566 12.7515C8.46867 13.6744 9.04905 14.4131 9.78502 14.4239C10.5297 14.4347 11.1136 13.7199 11.1224 12.7905C11.1311 11.8547 10.5682 11.1398 9.81649 11.1312C9.06479 11.1225 8.48266 11.8244 8.47741 12.7537L8.47566 12.7515Z" fill="white"/>
<path d="M31.1177 7.87307C33.3151 7.86441 35.0668 10.0263 35.0703 12.7537C35.0755 15.4788 33.3274 17.6668 31.1404 17.6733C28.9553 17.6798 27.1879 15.4962 27.1844 12.784C27.1809 10.0567 28.922 7.87957 31.1177 7.87307ZM32.4498 12.7883C32.4568 11.8525 31.8939 11.1376 31.1422 11.129C30.3905 11.1203 29.8101 11.8243 29.8031 12.7515C29.7979 13.6743 30.3765 14.413 31.1142 14.4217C31.8589 14.4304 32.4428 13.7155 32.4498 12.7862V12.7883Z" fill="white"/>
<path d="M33.969 39.4093C33.2732 39.3855 32.6911 38.6316 32.6981 37.763C32.7051 36.8488 33.3169 36.1383 34.0651 36.1794C34.7766 36.2184 35.3325 36.9615 35.3045 37.841C35.2783 38.7031 34.6577 39.431 33.969 39.4072V39.4093Z" fill="#FD6F00"/>
</svg>
