<svg width="69" height="69" viewBox="0 0 69 69" fill="none" xmlns="http://www.w3.org/2000/svg">
<mask id="path-1-outside-1_38_2617" maskUnits="userSpaceOnUse" x="0" y="-0.251953" width="69" height="69" fill="black">
<rect fill="white" y="-0.251953" width="69" height="69"/>
<path d="M68 7.27718V61.2172C67.965 61.3147 67.9126 61.4057 67.8951 61.5075C67.2221 65.3851 64.911 67.7204 61.7102 67.7442C60.5547 67.7529 59.3991 67.7442 58.2419 67.7442C41.2971 67.7442 24.3524 67.7464 7.40588 67.7442C3.6701 67.7442 1.00768 64.5555 1.00418 60.0388C0.99719 42.8408 0.99719 25.6471 1.01817 8.45346C1.01817 7.57612 1.14054 6.66412 1.36255 5.83228C2.21564 2.63487 4.49347 0.748047 7.40938 0.748047C25.4659 0.748047 43.5243 0.748047 61.5808 0.748047C61.7556 0.748047 61.9304 0.748047 62.1035 0.756712C64.5142 0.910517 66.2746 2.34025 67.3602 4.99393C67.6504 5.70447 67.7902 6.51032 67.9982 7.27284L68 7.27718ZM12.9632 64.4558C12.9632 61.2302 12.9632 58.0913 12.9632 54.9524C12.9632 52.4893 12.9492 50.0241 12.9685 47.5611C12.9877 45.1544 14.2062 43.6661 16.1291 43.6596C17.5469 43.6553 18.9646 43.6575 20.3806 43.6596C22.4801 43.6618 23.6531 45.1175 23.6549 47.7344C23.6584 52.9876 23.6549 58.2386 23.6549 63.4918C23.6549 63.8059 23.6549 64.12 23.6549 64.4515H27.5725C27.5725 64.1157 27.5725 63.8254 27.5725 63.5351C27.5725 60.7732 27.569 58.0112 27.5759 55.2513C27.5759 54.8484 27.5987 54.439 27.6511 54.0426C27.8312 52.6713 28.5199 51.7312 29.4377 50.9925C28.3172 47.6477 27.2141 44.355 26.111 41.0645C25.1023 38.0555 25.4537 36.0777 27.3382 33.8291C29.6877 31.026 31.8991 28.082 33.3571 24.3972C33.5861 23.8188 33.9776 23.509 34.5126 23.509C35.0737 23.509 35.4461 23.8448 35.7153 24.4405C36.1646 25.4283 36.5422 26.5006 37.1208 27.3563C38.7011 29.6937 40.3321 31.9856 42.0174 34.2082C43.4036 36.0365 43.8319 38.2071 43.0732 40.5445C42.6834 41.7468 42.2743 42.9426 41.8758 44.1406C41.1153 46.4346 40.3566 48.7287 39.5874 51.0444C41.0139 52.0973 41.4719 53.67 41.4387 55.6066C41.3915 58.2581 41.4265 60.9118 41.4265 63.5655V64.432H45.0923C45.0923 64.0724 45.0923 63.7778 45.0923 63.481C45.0923 59.5817 45.0574 55.6824 45.1203 51.7853C45.1343 50.9751 45.3511 50.0046 45.7601 49.4089C46.2566 48.6854 46.3632 47.9965 46.3405 47.1452C46.2968 45.436 46.8999 44.1947 48.1236 43.391C48.2984 43.2762 48.468 42.9296 48.4767 42.6827C48.5152 41.6017 48.4855 40.5186 48.496 39.4354C48.5065 38.361 49.0099 37.6721 49.7721 37.6547C50.557 37.6374 51.0937 38.348 51.1077 39.4549C51.1217 40.5099 51.1287 41.567 51.1025 42.622C51.092 43.0617 51.1986 43.2892 51.5307 43.4755C52.3716 43.9478 52.9467 44.7709 53.139 45.8887C53.2597 46.5928 53.1985 47.3423 53.2544 48.068C53.2754 48.3388 53.3366 48.6789 53.4834 48.8457C54.2509 49.7165 54.5236 50.7888 54.5183 52.0474C54.5008 55.8926 54.5131 59.7355 54.5131 63.5806C54.5131 63.8687 54.5131 64.1547 54.5131 64.4991C56.9308 64.4991 59.2593 64.5035 61.5896 64.4991C63.9653 64.4948 65.3813 62.7466 65.3813 59.8135C65.383 47.6846 65.3813 35.5556 65.3813 23.4245C65.3813 23.1386 65.3813 22.8548 65.3813 22.571H3.6194C3.6194 22.9003 3.6194 23.1906 3.6194 23.4809C3.6194 35.5556 3.6194 47.6304 3.6194 59.7074C3.6194 59.9781 3.61416 60.2489 3.62989 60.5197C3.74003 62.478 4.99694 64.3237 6.54405 64.4233C8.64881 64.5598 10.7623 64.458 12.9632 64.458V64.4558ZM3.62814 19.2155H65.3725C65.3725 15.418 65.3725 11.6812 65.3708 7.94655C65.3708 7.81225 65.3481 7.67794 65.3271 7.54579C64.974 5.31237 63.5964 3.99745 61.5861 3.99745C43.5278 3.99745 25.4712 3.99745 7.41287 3.99745C7.23806 3.99745 7.06324 3.99745 6.89018 4.00828C5.18224 4.10576 3.68234 5.82145 3.64563 7.94872C3.58269 11.6812 3.62814 15.418 3.62814 19.2176V19.2155ZM33.1927 50.4682C33.1927 47.8449 33.1875 45.2497 33.1962 42.6567C33.1997 41.541 33.7277 40.85 34.5266 40.8673C35.2957 40.8825 35.7992 41.5605 35.8062 42.6393C35.8167 44.5868 35.8097 46.5364 35.8097 48.4839C35.8097 49.1533 35.8097 49.8248 35.8097 50.609C36.2992 50.4184 36.8166 50.9101 37.0946 50.0588C38.2711 46.4541 39.4773 42.8625 40.666 39.2643C41.0104 38.2223 40.8356 37.3125 40.1783 36.5348C39.6259 35.8806 39.0543 35.248 38.5508 34.5397C37.1715 32.5987 35.8254 30.623 34.4496 28.6387C34.4426 28.6496 34.364 28.7362 34.3063 28.8424C32.7819 31.6347 30.9429 34.0847 28.971 36.3918C28.1056 37.4035 27.9728 38.1595 28.4255 39.5134C29.5531 42.8819 30.7121 46.2332 31.7942 49.6234C32.0739 50.4985 32.4428 50.752 33.1945 50.4725L33.1927 50.4682ZM38.813 64.471V63.6738C38.813 60.888 38.813 58.1043 38.813 55.3185C38.813 54.1075 38.5892 53.8173 37.6313 53.8151C35.5405 53.8086 33.4497 53.8086 31.3589 53.8151C30.4272 53.8173 30.1912 54.1119 30.1894 55.2513C30.1859 58.0913 30.1877 60.9291 30.1894 63.7691C30.1894 64.0009 30.2139 64.2305 30.2279 64.4731H38.8113L38.813 64.471ZM21.0379 64.4601C21.0379 63.5048 21.0379 62.6426 21.0379 61.7783C21.0379 57.1252 21.0379 52.4698 21.0379 47.8167C21.0379 47.338 21.0711 46.8874 20.4942 46.896C19.0345 46.9199 17.5731 46.8852 16.1151 46.9285C15.9351 46.9329 15.6344 47.2383 15.6099 47.4419C15.5417 48.042 15.5854 48.6615 15.5854 49.3266C16.2043 49.3266 16.7252 49.3179 17.2462 49.3266C18.1535 49.3439 18.7408 49.97 18.7513 50.9166C18.7636 51.8936 18.157 52.5522 17.2182 52.5695C16.699 52.5782 16.1798 52.5695 15.6361 52.5695V54.5733C16.2585 54.5733 16.8231 54.5495 17.3878 54.5798C18.1902 54.621 18.7443 55.2968 18.7513 56.1937C18.7583 57.1187 18.1797 57.7924 17.3406 57.8162C16.7812 57.8314 16.22 57.8184 15.6344 57.8184V59.859C16.2095 59.859 16.7287 59.8482 17.2497 59.8612C18.1657 59.885 18.7443 60.5067 18.7531 61.4555C18.7636 62.4325 18.1639 63.0802 17.2165 63.1019C16.699 63.1127 16.1798 63.1019 15.6291 63.1019V64.4515H21.0379V64.4601ZM51.8961 64.4558C51.8961 60.1883 51.8926 56.0225 51.9014 51.8568C51.9014 51.3586 51.6933 51.2849 51.3629 51.2871C50.3595 51.3001 49.3561 51.3282 48.3544 51.2762C47.8142 51.2481 47.6971 51.4972 47.7006 52.1189C47.7198 56.016 47.7093 59.9153 47.7128 63.8124C47.7128 64.0204 47.739 64.2283 47.7548 64.4558H51.8961ZM50.6986 48.003C50.606 47.4398 50.6497 46.6838 50.4119 46.504C50.092 46.2613 49.4557 46.2787 49.1428 46.5364C48.9138 46.7249 48.9872 47.4788 48.9225 48.003H50.6986Z"/>
</mask>
<path d="M68 7.27718V61.2172C67.965 61.3147 67.9126 61.4057 67.8951 61.5075C67.2221 65.3851 64.911 67.7204 61.7102 67.7442C60.5547 67.7529 59.3991 67.7442 58.2419 67.7442C41.2971 67.7442 24.3524 67.7464 7.40588 67.7442C3.6701 67.7442 1.00768 64.5555 1.00418 60.0388C0.99719 42.8408 0.99719 25.6471 1.01817 8.45346C1.01817 7.57612 1.14054 6.66412 1.36255 5.83228C2.21564 2.63487 4.49347 0.748047 7.40938 0.748047C25.4659 0.748047 43.5243 0.748047 61.5808 0.748047C61.7556 0.748047 61.9304 0.748047 62.1035 0.756712C64.5142 0.910517 66.2746 2.34025 67.3602 4.99393C67.6504 5.70447 67.7902 6.51032 67.9982 7.27284L68 7.27718ZM12.9632 64.4558C12.9632 61.2302 12.9632 58.0913 12.9632 54.9524C12.9632 52.4893 12.9492 50.0241 12.9685 47.5611C12.9877 45.1544 14.2062 43.6661 16.1291 43.6596C17.5469 43.6553 18.9646 43.6575 20.3806 43.6596C22.4801 43.6618 23.6531 45.1175 23.6549 47.7344C23.6584 52.9876 23.6549 58.2386 23.6549 63.4918C23.6549 63.8059 23.6549 64.12 23.6549 64.4515H27.5725C27.5725 64.1157 27.5725 63.8254 27.5725 63.5351C27.5725 60.7732 27.569 58.0112 27.5759 55.2513C27.5759 54.8484 27.5987 54.439 27.6511 54.0426C27.8312 52.6713 28.5199 51.7312 29.4377 50.9925C28.3172 47.6477 27.2141 44.355 26.111 41.0645C25.1023 38.0555 25.4537 36.0777 27.3382 33.8291C29.6877 31.026 31.8991 28.082 33.3571 24.3972C33.5861 23.8188 33.9776 23.509 34.5126 23.509C35.0737 23.509 35.4461 23.8448 35.7153 24.4405C36.1646 25.4283 36.5422 26.5006 37.1208 27.3563C38.7011 29.6937 40.3321 31.9856 42.0174 34.2082C43.4036 36.0365 43.8319 38.2071 43.0732 40.5445C42.6834 41.7468 42.2743 42.9426 41.8758 44.1406C41.1153 46.4346 40.3566 48.7287 39.5874 51.0444C41.0139 52.0973 41.4719 53.67 41.4387 55.6066C41.3915 58.2581 41.4265 60.9118 41.4265 63.5655V64.432H45.0923C45.0923 64.0724 45.0923 63.7778 45.0923 63.481C45.0923 59.5817 45.0574 55.6824 45.1203 51.7853C45.1343 50.9751 45.3511 50.0046 45.7601 49.4089C46.2566 48.6854 46.3632 47.9965 46.3405 47.1452C46.2968 45.436 46.8999 44.1947 48.1236 43.391C48.2984 43.2762 48.468 42.9296 48.4767 42.6827C48.5152 41.6017 48.4855 40.5186 48.496 39.4354C48.5065 38.361 49.0099 37.6721 49.7721 37.6547C50.557 37.6374 51.0937 38.348 51.1077 39.4549C51.1217 40.5099 51.1287 41.567 51.1025 42.622C51.092 43.0617 51.1986 43.2892 51.5307 43.4755C52.3716 43.9478 52.9467 44.7709 53.139 45.8887C53.2597 46.5928 53.1985 47.3423 53.2544 48.068C53.2754 48.3388 53.3366 48.6789 53.4834 48.8457C54.2509 49.7165 54.5236 50.7888 54.5183 52.0474C54.5008 55.8926 54.5131 59.7355 54.5131 63.5806C54.5131 63.8687 54.5131 64.1547 54.5131 64.4991C56.9308 64.4991 59.2593 64.5035 61.5896 64.4991C63.9653 64.4948 65.3813 62.7466 65.3813 59.8135C65.383 47.6846 65.3813 35.5556 65.3813 23.4245C65.3813 23.1386 65.3813 22.8548 65.3813 22.571H3.6194C3.6194 22.9003 3.6194 23.1906 3.6194 23.4809C3.6194 35.5556 3.6194 47.6304 3.6194 59.7074C3.6194 59.9781 3.61416 60.2489 3.62989 60.5197C3.74003 62.478 4.99694 64.3237 6.54405 64.4233C8.64881 64.5598 10.7623 64.458 12.9632 64.458V64.4558ZM3.62814 19.2155H65.3725C65.3725 15.418 65.3725 11.6812 65.3708 7.94655C65.3708 7.81225 65.3481 7.67794 65.3271 7.54579C64.974 5.31237 63.5964 3.99745 61.5861 3.99745C43.5278 3.99745 25.4712 3.99745 7.41287 3.99745C7.23806 3.99745 7.06324 3.99745 6.89018 4.00828C5.18224 4.10576 3.68234 5.82145 3.64563 7.94872C3.58269 11.6812 3.62814 15.418 3.62814 19.2176V19.2155ZM33.1927 50.4682C33.1927 47.8449 33.1875 45.2497 33.1962 42.6567C33.1997 41.541 33.7277 40.85 34.5266 40.8673C35.2957 40.8825 35.7992 41.5605 35.8062 42.6393C35.8167 44.5868 35.8097 46.5364 35.8097 48.4839C35.8097 49.1533 35.8097 49.8248 35.8097 50.609C36.2992 50.4184 36.8166 50.9101 37.0946 50.0588C38.2711 46.4541 39.4773 42.8625 40.666 39.2643C41.0104 38.2223 40.8356 37.3125 40.1783 36.5348C39.6259 35.8806 39.0543 35.248 38.5508 34.5397C37.1715 32.5987 35.8254 30.623 34.4496 28.6387C34.4426 28.6496 34.364 28.7362 34.3063 28.8424C32.7819 31.6347 30.9429 34.0847 28.971 36.3918C28.1056 37.4035 27.9728 38.1595 28.4255 39.5134C29.5531 42.8819 30.7121 46.2332 31.7942 49.6234C32.0739 50.4985 32.4428 50.752 33.1945 50.4725L33.1927 50.4682ZM38.813 64.471V63.6738C38.813 60.888 38.813 58.1043 38.813 55.3185C38.813 54.1075 38.5892 53.8173 37.6313 53.8151C35.5405 53.8086 33.4497 53.8086 31.3589 53.8151C30.4272 53.8173 30.1912 54.1119 30.1894 55.2513C30.1859 58.0913 30.1877 60.9291 30.1894 63.7691C30.1894 64.0009 30.2139 64.2305 30.2279 64.4731H38.8113L38.813 64.471ZM21.0379 64.4601C21.0379 63.5048 21.0379 62.6426 21.0379 61.7783C21.0379 57.1252 21.0379 52.4698 21.0379 47.8167C21.0379 47.338 21.0711 46.8874 20.4942 46.896C19.0345 46.9199 17.5731 46.8852 16.1151 46.9285C15.9351 46.9329 15.6344 47.2383 15.6099 47.4419C15.5417 48.042 15.5854 48.6615 15.5854 49.3266C16.2043 49.3266 16.7252 49.3179 17.2462 49.3266C18.1535 49.3439 18.7408 49.97 18.7513 50.9166C18.7636 51.8936 18.157 52.5522 17.2182 52.5695C16.699 52.5782 16.1798 52.5695 15.6361 52.5695V54.5733C16.2585 54.5733 16.8231 54.5495 17.3878 54.5798C18.1902 54.621 18.7443 55.2968 18.7513 56.1937C18.7583 57.1187 18.1797 57.7924 17.3406 57.8162C16.7812 57.8314 16.22 57.8184 15.6344 57.8184V59.859C16.2095 59.859 16.7287 59.8482 17.2497 59.8612C18.1657 59.885 18.7443 60.5067 18.7531 61.4555C18.7636 62.4325 18.1639 63.0802 17.2165 63.1019C16.699 63.1127 16.1798 63.1019 15.6291 63.1019V64.4515H21.0379V64.4601ZM51.8961 64.4558C51.8961 60.1883 51.8926 56.0225 51.9014 51.8568C51.9014 51.3586 51.6933 51.2849 51.3629 51.2871C50.3595 51.3001 49.3561 51.3282 48.3544 51.2762C47.8142 51.2481 47.6971 51.4972 47.7006 52.1189C47.7198 56.016 47.7093 59.9153 47.7128 63.8124C47.7128 64.0204 47.739 64.2283 47.7548 64.4558H51.8961ZM50.6986 48.003C50.606 47.4398 50.6497 46.6838 50.4119 46.504C50.092 46.2613 49.4557 46.2787 49.1428 46.5364C48.9138 46.7249 48.9872 47.4788 48.9225 48.003H50.6986Z" fill="#FD6F00"/>
<path d="M68 7.27718V61.2172C67.965 61.3147 67.9126 61.4057 67.8951 61.5075C67.2221 65.3851 64.911 67.7204 61.7102 67.7442C60.5547 67.7529 59.3991 67.7442 58.2419 67.7442C41.2971 67.7442 24.3524 67.7464 7.40588 67.7442C3.6701 67.7442 1.00768 64.5555 1.00418 60.0388C0.99719 42.8408 0.99719 25.6471 1.01817 8.45346C1.01817 7.57612 1.14054 6.66412 1.36255 5.83228C2.21564 2.63487 4.49347 0.748047 7.40938 0.748047C25.4659 0.748047 43.5243 0.748047 61.5808 0.748047C61.7556 0.748047 61.9304 0.748047 62.1035 0.756712C64.5142 0.910517 66.2746 2.34025 67.3602 4.99393C67.6504 5.70447 67.7902 6.51032 67.9982 7.27284L68 7.27718ZM12.9632 64.4558C12.9632 61.2302 12.9632 58.0913 12.9632 54.9524C12.9632 52.4893 12.9492 50.0241 12.9685 47.5611C12.9877 45.1544 14.2062 43.6661 16.1291 43.6596C17.5469 43.6553 18.9646 43.6575 20.3806 43.6596C22.4801 43.6618 23.6531 45.1175 23.6549 47.7344C23.6584 52.9876 23.6549 58.2386 23.6549 63.4918C23.6549 63.8059 23.6549 64.12 23.6549 64.4515H27.5725C27.5725 64.1157 27.5725 63.8254 27.5725 63.5351C27.5725 60.7732 27.569 58.0112 27.5759 55.2513C27.5759 54.8484 27.5987 54.439 27.6511 54.0426C27.8312 52.6713 28.5199 51.7312 29.4377 50.9925C28.3172 47.6477 27.2141 44.355 26.111 41.0645C25.1023 38.0555 25.4537 36.0777 27.3382 33.8291C29.6877 31.026 31.8991 28.082 33.3571 24.3972C33.5861 23.8188 33.9776 23.509 34.5126 23.509C35.0737 23.509 35.4461 23.8448 35.7153 24.4405C36.1646 25.4283 36.5422 26.5006 37.1208 27.3563C38.7011 29.6937 40.3321 31.9856 42.0174 34.2082C43.4036 36.0365 43.8319 38.2071 43.0732 40.5445C42.6834 41.7468 42.2743 42.9426 41.8758 44.1406C41.1153 46.4346 40.3566 48.7287 39.5874 51.0444C41.0139 52.0973 41.4719 53.67 41.4387 55.6066C41.3915 58.2581 41.4265 60.9118 41.4265 63.5655V64.432H45.0923C45.0923 64.0724 45.0923 63.7778 45.0923 63.481C45.0923 59.5817 45.0574 55.6824 45.1203 51.7853C45.1343 50.9751 45.3511 50.0046 45.7601 49.4089C46.2566 48.6854 46.3632 47.9965 46.3405 47.1452C46.2968 45.436 46.8999 44.1947 48.1236 43.391C48.2984 43.2762 48.468 42.9296 48.4767 42.6827C48.5152 41.6017 48.4855 40.5186 48.496 39.4354C48.5065 38.361 49.0099 37.6721 49.7721 37.6547C50.557 37.6374 51.0937 38.348 51.1077 39.4549C51.1217 40.5099 51.1287 41.567 51.1025 42.622C51.092 43.0617 51.1986 43.2892 51.5307 43.4755C52.3716 43.9478 52.9467 44.7709 53.139 45.8887C53.2597 46.5928 53.1985 47.3423 53.2544 48.068C53.2754 48.3388 53.3366 48.6789 53.4834 48.8457C54.2509 49.7165 54.5236 50.7888 54.5183 52.0474C54.5008 55.8926 54.5131 59.7355 54.5131 63.5806C54.5131 63.8687 54.5131 64.1547 54.5131 64.4991C56.9308 64.4991 59.2593 64.5035 61.5896 64.4991C63.9653 64.4948 65.3813 62.7466 65.3813 59.8135C65.383 47.6846 65.3813 35.5556 65.3813 23.4245C65.3813 23.1386 65.3813 22.8548 65.3813 22.571H3.6194C3.6194 22.9003 3.6194 23.1906 3.6194 23.4809C3.6194 35.5556 3.6194 47.6304 3.6194 59.7074C3.6194 59.9781 3.61416 60.2489 3.62989 60.5197C3.74003 62.478 4.99694 64.3237 6.54405 64.4233C8.64881 64.5598 10.7623 64.458 12.9632 64.458V64.4558ZM3.62814 19.2155H65.3725C65.3725 15.418 65.3725 11.6812 65.3708 7.94655C65.3708 7.81225 65.3481 7.67794 65.3271 7.54579C64.974 5.31237 63.5964 3.99745 61.5861 3.99745C43.5278 3.99745 25.4712 3.99745 7.41287 3.99745C7.23806 3.99745 7.06324 3.99745 6.89018 4.00828C5.18224 4.10576 3.68234 5.82145 3.64563 7.94872C3.58269 11.6812 3.62814 15.418 3.62814 19.2176V19.2155ZM33.1927 50.4682C33.1927 47.8449 33.1875 45.2497 33.1962 42.6567C33.1997 41.541 33.7277 40.85 34.5266 40.8673C35.2957 40.8825 35.7992 41.5605 35.8062 42.6393C35.8167 44.5868 35.8097 46.5364 35.8097 48.4839C35.8097 49.1533 35.8097 49.8248 35.8097 50.609C36.2992 50.4184 36.8166 50.9101 37.0946 50.0588C38.2711 46.4541 39.4773 42.8625 40.666 39.2643C41.0104 38.2223 40.8356 37.3125 40.1783 36.5348C39.6259 35.8806 39.0543 35.248 38.5508 34.5397C37.1715 32.5987 35.8254 30.623 34.4496 28.6387C34.4426 28.6496 34.364 28.7362 34.3063 28.8424C32.7819 31.6347 30.9429 34.0847 28.971 36.3918C28.1056 37.4035 27.9728 38.1595 28.4255 39.5134C29.5531 42.8819 30.7121 46.2332 31.7942 49.6234C32.0739 50.4985 32.4428 50.752 33.1945 50.4725L33.1927 50.4682ZM38.813 64.471V63.6738C38.813 60.888 38.813 58.1043 38.813 55.3185C38.813 54.1075 38.5892 53.8173 37.6313 53.8151C35.5405 53.8086 33.4497 53.8086 31.3589 53.8151C30.4272 53.8173 30.1912 54.1119 30.1894 55.2513C30.1859 58.0913 30.1877 60.9291 30.1894 63.7691C30.1894 64.0009 30.2139 64.2305 30.2279 64.4731H38.8113L38.813 64.471ZM21.0379 64.4601C21.0379 63.5048 21.0379 62.6426 21.0379 61.7783C21.0379 57.1252 21.0379 52.4698 21.0379 47.8167C21.0379 47.338 21.0711 46.8874 20.4942 46.896C19.0345 46.9199 17.5731 46.8852 16.1151 46.9285C15.9351 46.9329 15.6344 47.2383 15.6099 47.4419C15.5417 48.042 15.5854 48.6615 15.5854 49.3266C16.2043 49.3266 16.7252 49.3179 17.2462 49.3266C18.1535 49.3439 18.7408 49.97 18.7513 50.9166C18.7636 51.8936 18.157 52.5522 17.2182 52.5695C16.699 52.5782 16.1798 52.5695 15.6361 52.5695V54.5733C16.2585 54.5733 16.8231 54.5495 17.3878 54.5798C18.1902 54.621 18.7443 55.2968 18.7513 56.1937C18.7583 57.1187 18.1797 57.7924 17.3406 57.8162C16.7812 57.8314 16.22 57.8184 15.6344 57.8184V59.859C16.2095 59.859 16.7287 59.8482 17.2497 59.8612C18.1657 59.885 18.7443 60.5067 18.7531 61.4555C18.7636 62.4325 18.1639 63.0802 17.2165 63.1019C16.699 63.1127 16.1798 63.1019 15.6291 63.1019V64.4515H21.0379V64.4601ZM51.8961 64.4558C51.8961 60.1883 51.8926 56.0225 51.9014 51.8568C51.9014 51.3586 51.6933 51.2849 51.3629 51.2871C50.3595 51.3001 49.3561 51.3282 48.3544 51.2762C47.8142 51.2481 47.6971 51.4972 47.7006 52.1189C47.7198 56.016 47.7093 59.9153 47.7128 63.8124C47.7128 64.0204 47.739 64.2283 47.7548 64.4558H51.8961ZM50.6986 48.003C50.606 47.4398 50.6497 46.6838 50.4119 46.504C50.092 46.2613 49.4557 46.2787 49.1428 46.5364C48.9138 46.7249 48.9872 47.4788 48.9225 48.003H50.6986Z" stroke="#FD6F00" stroke-width="0.906582" mask="url(#path-1-outside-1_38_2617)"/>
<path d="M20.9609 7.22706C23.1478 7.22272 24.9239 9.41065 24.9291 12.1163C24.9344 14.8047 23.146 17.0251 20.9713 17.0294C18.7984 17.0338 17.0066 14.8198 17.0031 12.1293C16.9996 9.42799 18.7739 7.23139 20.9609 7.22706ZM20.9801 10.4808C20.2476 10.4721 19.6428 11.1892 19.6253 12.086C19.606 13.0002 20.2406 13.7887 20.9853 13.7757C21.7038 13.7627 22.3087 13.0045 22.3087 12.1185C22.3087 11.2238 21.7091 10.4873 20.9801 10.4786V10.4808Z" fill="white"/>
<path d="M14.2428 12.1469C14.2341 14.8656 12.4737 17.0362 10.2815 17.0275C8.09984 17.0189 6.3517 14.8201 6.35695 12.0971C6.36394 9.37843 8.12781 7.21216 10.3217 7.22516C12.5191 7.23815 14.2516 9.41092 14.2428 12.1469ZM8.97566 12.1036C8.96867 13.0264 9.54905 13.7651 10.285 13.7759C11.0297 13.7868 11.6136 13.0719 11.6224 12.1426C11.6311 11.2068 11.0682 10.4919 10.3165 10.4832C9.56479 10.4746 8.98266 11.1764 8.97741 12.1058L8.97566 12.1036Z" fill="white"/>
<path d="M31.6177 7.22512C33.8151 7.21646 35.5668 9.37839 35.5703 12.1057C35.5755 14.8309 33.8274 17.0188 31.6404 17.0253C29.4553 17.0318 27.6879 14.8482 27.6844 12.1361C27.6809 9.40872 29.422 7.23162 31.6177 7.22512ZM32.9498 12.1404C32.9568 11.2046 32.3939 10.4897 31.6422 10.481C30.8905 10.4724 30.3101 11.1764 30.3031 12.1036C30.2979 13.0264 30.8765 13.7651 31.6142 13.7738C32.3589 13.7824 32.9428 13.0675 32.9498 12.1382V12.1404Z" fill="white"/>
<path d="M34.469 38.7614C33.7732 38.7376 33.1911 37.9837 33.1981 37.115C33.2051 36.2009 33.8169 35.4903 34.5651 35.5315C35.2766 35.5705 35.8325 36.3135 35.8045 37.193C35.7783 38.0552 35.1577 38.7831 34.469 38.7592V38.7614Z" fill="#FD6F00"/>
</svg>
