<svg width="69" height="70" viewBox="0 0 69 70" fill="none" xmlns="http://www.w3.org/2000/svg">
<path d="M26.7568 58.6965H64.9863V43.2239H26.7568V58.6965ZM3.9873 33.552H42.2207V18.0793H3.9873V33.552ZM47.585 8.44067H54.543V4.75317H47.585V8.44067ZM14.4707 8.42603H44.2012V4.74243H14.4707V8.42603ZM68.3408 60.843L68.3076 60.9133C68.1023 61.3434 67.8144 61.6438 67.4463 61.8284C67.1763 61.9637 66.8784 62.0288 66.5654 62.051L66.248 62.0598C63.599 62.0267 60.9514 62.0471 58.2959 62.0471H57.8701C57.8668 63.7355 57.8433 65.3505 57.8857 66.967C57.8971 67.4044 57.8353 67.8111 57.6553 68.1711C57.4728 68.536 57.1816 68.8258 56.7783 69.0471L56.7021 69.0891H12.2969L12.2207 69.0481C11.8118 68.8254 11.5244 68.5325 11.3457 68.1663C11.2141 67.8964 11.1484 67.6003 11.124 67.2874L11.1123 66.97C11.1333 57.0954 11.126 47.2203 11.126 37.345V36.8997C8.23311 36.8998 5.42365 36.9013 2.61621 36.8997C2.00393 36.8996 1.48727 36.7781 1.13281 36.4192C0.779416 36.0611 0.660194 35.5405 0.660156 34.9241C0.658408 28.8421 0.658408 22.7599 0.660156 16.678C0.660156 16.0803 0.7818 15.5729 1.13281 15.2229C1.48372 14.8733 1.99266 14.7521 2.5918 14.7512H11.126V14.3245C11.126 10.7245 11.1455 7.13182 11.1123 3.53638C11.1085 3.10426 11.1676 2.69759 11.3438 2.33716C11.5231 1.9703 11.8109 1.67703 12.2207 1.45532L12.2969 1.41431H56.2715V1.17407L56.7754 1.44849C57.1844 1.67125 57.4725 1.96458 57.6514 2.3313C57.7832 2.60153 57.8491 2.89791 57.873 3.21118L57.8838 3.52954C57.8576 8.84976 57.8701 14.1681 57.8701 19.4905C57.8701 19.642 57.8791 19.8527 57.8594 20.0481C57.7766 20.9225 57.1057 21.5771 56.2373 21.5862H56.2363C55.3411 21.5948 54.6215 20.922 54.5801 19.9924V19.9915C54.5499 19.2857 54.5693 18.5683 54.5693 17.8831V11.8264H14.4746V14.7454H43.4336C44.1397 14.7454 44.7174 14.8368 45.0967 15.2122C45.4771 15.5888 45.5703 16.1639 45.5703 16.8645V34.7893C45.5703 35.4759 45.4704 36.0418 45.0986 36.4182C44.7254 36.7959 44.1621 36.8977 43.4805 36.8977H14.4746V65.7483H54.5381V62.0442H25.6396C24.8865 62.0442 24.2779 61.9661 23.8906 61.5725C23.5056 61.1809 23.4297 60.5682 23.4297 59.8049V41.9465C23.4297 41.2848 23.5389 40.7347 23.9131 40.3655C24.2861 39.9977 24.8406 39.8899 25.5098 39.8899H54.5723V39.5159C54.5723 36.9867 54.569 34.4555 54.5742 31.927C54.5744 31.4898 54.6676 31.1005 54.876 30.7864C55.0874 30.4677 55.3986 30.2551 55.7783 30.1428L55.9805 30.0959C56.4506 30.0164 56.9001 30.1474 57.2432 30.4377C57.6321 30.7669 57.8651 31.2824 57.8682 31.8762C57.8787 34.4069 57.8711 36.9384 57.8711 39.4651V39.8918H59.4062C61.6785 39.8918 63.9406 39.9165 66.2041 39.8782L66.5234 39.886C66.837 39.9078 67.1331 39.9742 67.4043 40.1057C67.7711 40.2837 68.0674 40.5691 68.2959 40.97L68.3408 41.0481V60.843Z" fill="#FD6F00" stroke="#FD6F00" stroke-width="0.68185"/>
<path d="M56.1248 23.8381C57.2295 23.7855 58.178 24.6593 58.2048 25.7688C58.2314 26.8676 57.3202 27.8049 56.2195 27.8049C55.1563 27.8049 54.2621 26.9247 54.2351 25.8655V25.8645C54.2085 24.7973 55.0556 23.8891 56.1238 23.8381H56.1248Z" fill="#FD6F00" stroke="#FD6F00" stroke-width="1.3637"/>
<path d="M13.1647 21.3676C14.6244 21.3676 16.0823 21.3623 17.542 21.3693C18.5734 21.3745 19.0524 21.8578 19.0559 22.8977C19.0629 24.836 19.0629 26.7726 19.0559 28.711C19.0524 29.7753 18.5647 30.2603 17.4843 30.262C14.6104 30.2673 11.7365 30.2673 8.8608 30.262C7.77871 30.2603 7.28574 29.777 7.28225 28.718C7.27525 26.7796 7.277 24.843 7.28225 22.9046C7.28574 21.8369 7.76298 21.3711 8.85381 21.3676C10.2908 21.3623 11.7277 21.3676 13.1647 21.3676ZM16.404 27.6171V24.0247H9.94639V27.6171H16.404Z" fill="white"/>
<path d="M30.847 23.9827C28.7563 23.9827 26.6673 23.9827 24.5765 23.9827C24.4017 23.9827 24.2269 23.9897 24.0538 23.9792C23.2672 23.9269 22.7148 23.3703 22.727 22.648C22.7375 21.917 23.2899 21.3831 24.0958 21.3727C25.2932 21.357 26.4907 21.3674 27.6882 21.3674C30.7579 21.3674 33.8276 21.3674 36.8973 21.3674C38.3343 21.3674 38.9583 21.7705 38.9426 22.6882C38.9269 23.5797 38.2993 23.9827 36.9218 23.9827C34.8974 23.9827 32.8731 23.9827 30.847 23.9827Z" fill="white"/>
<path d="M30.8663 27.6504C33.1091 27.6504 35.352 27.6417 37.5931 27.6556C38.3919 27.6609 38.9426 28.2139 38.9426 28.9485C38.9426 29.6463 38.4112 30.1942 37.6612 30.2587C37.4882 30.2727 37.3134 30.2657 37.1385 30.2657C32.936 30.2657 28.7353 30.2657 24.5328 30.2657C24.4017 30.2657 24.2706 30.2692 24.1412 30.2657C23.3039 30.2326 22.7287 29.6969 22.727 28.9537C22.727 28.1982 23.2916 27.6591 24.1377 27.6556C26.3806 27.6452 28.6217 27.6521 30.8645 27.6539L30.8663 27.6504Z" fill="white"/>
<path d="M35.9148 55.4066C34.4552 55.4066 32.9972 55.4135 31.5375 55.4048C30.5464 55.3996 30.0569 54.9076 30.0516 53.9131C30.0429 51.9538 30.0446 49.9945 30.0516 48.0334C30.0551 47.0111 30.5533 46.5138 31.5847 46.5121C34.4814 46.5051 37.3763 46.5051 40.2729 46.5121C41.3375 46.5138 41.8218 47.0076 41.8253 48.0806C41.8305 50.0189 41.8323 51.9555 41.8253 53.8939C41.8218 54.9215 41.3323 55.3996 40.2922 55.4048C38.8325 55.4118 37.3745 55.4048 35.9148 55.4048V55.4066ZM32.6965 52.7424H39.1541V49.1623H32.6965V52.7424Z" fill="white"/>
<path d="M53.5972 49.1274C51.4207 49.1274 49.2426 49.1309 47.0661 49.1274C46.0977 49.1257 45.5138 48.6441 45.4963 47.852C45.4789 47.046 46.0977 46.5138 47.0801 46.5138C51.4347 46.5104 55.7893 46.5104 60.1421 46.5138C61.1001 46.5138 61.6945 47.0128 61.712 47.7997C61.7294 48.6127 61.1246 49.1257 60.1299 49.1274C57.9535 49.1309 55.7753 49.1274 53.5989 49.1274H53.5972Z" fill="white"/>
<path d="M53.6111 55.4084C51.4347 55.4084 49.2565 55.4102 47.0801 55.4084C46.0802 55.4084 45.4805 54.899 45.4963 54.0824C45.512 53.3008 46.1134 52.7949 47.0643 52.7949C51.4399 52.7914 55.8155 52.7914 60.1928 52.7949C61.0494 52.7949 61.6053 53.2293 61.7032 53.9359C61.7888 54.5465 61.3955 55.1764 60.7871 55.3456C60.5616 55.4084 60.3134 55.4067 60.0757 55.4067C57.9202 55.4102 55.7648 55.4084 53.6093 55.4084H53.6111Z" fill="white"/>
</svg>
