<svg width="67" height="68" viewBox="0 0 67 68" fill="none" xmlns="http://www.w3.org/2000/svg">
<path d="M41.6408 45.9382C39.6814 45.9382 37.722 45.9452 35.7646 45.9364C33.4392 45.926 32.0189 44.668 32.013 42.6266C32.009 40.5136 32.005 38.3989 32.013 36.286C32.0209 34.3632 33.4512 33.0651 35.6254 33.0564C39.6416 33.0372 43.6598 33.0372 47.6761 33.0564C49.7966 33.0669 51.2348 34.3091 51.2646 36.1674C51.3004 38.3902 51.3004 40.6131 51.2646 42.8359C51.2328 44.6924 49.7886 45.919 47.6641 45.9364C45.655 45.9539 43.6479 45.9399 41.6388 45.9417L41.6408 45.9382ZM46.3035 43.3227C46.7053 43.3227 47.0017 43.3227 47.2981 43.3227C48.2251 43.3158 48.2987 43.2547 48.2987 42.4137C48.3027 40.4299 48.2848 38.4443 48.3086 36.4605C48.3166 35.8725 48.0739 35.6526 47.3936 35.6561C43.5723 35.6753 39.751 35.6753 35.9317 35.6561C35.2236 35.6526 34.965 35.869 34.9769 36.4954C35.0087 38.3047 34.9888 40.1141 34.9888 41.9252C34.9888 43.4047 35.0107 43.4222 36.6976 43.314C36.7672 43.3088 36.8348 43.2791 36.9781 43.2407C37.0357 41.8623 36.7672 40.4054 38.0224 39.2452C39.2935 38.0692 40.9107 38.1494 42.528 38.1861C43.4788 38.207 44.3103 38.5019 45.0344 39.0532C46.5263 40.1926 46.3055 41.7454 46.3035 43.3227ZM43.3217 43.2983C43.3217 42.6789 43.3416 42.1171 43.3157 41.557C43.2918 41.0615 42.9338 40.7544 42.3987 40.8155C41.5891 40.9097 40.4652 40.3391 40.0613 41.3721C39.8385 41.9426 40.0216 42.637 40.0216 43.2983H43.3237H43.3217Z" fill="white"/>
<path d="M15.6138 14.8215C15.6138 14.0957 16.2424 13.5373 17.066 13.5303C17.8815 13.5234 18.5499 14.0834 18.5738 14.7883C18.5977 15.5107 17.8994 16.1266 17.066 16.1179C16.2524 16.1091 15.6138 15.5403 15.6138 14.8197V14.8215Z" fill="#FD6F00"/>
<path d="M22.628 35.5584C23.1472 35.5584 23.6664 35.5479 24.1855 35.5601C25.1404 35.5845 25.7709 36.1202 25.761 36.8809C25.7511 37.6137 25.1324 38.1511 24.2213 38.1668C23.1094 38.186 21.9974 38.1878 20.8854 38.1668C20.0022 38.1476 19.3597 37.5649 19.3716 36.8495C19.3836 36.1324 20.0281 35.5968 20.9232 35.5601C20.9729 35.5584 21.0227 35.5601 21.0724 35.5601C21.5916 35.5601 22.1108 35.5601 22.63 35.5601L22.628 35.5584Z" fill="white"/>
<path d="M44.9666 67.748H22.0369C21.0999 67.256 20.7956 66.757 21.0084 66.0713C21.2054 65.4432 21.8021 65.1344 22.8345 65.1326C23.8172 65.1326 24.7999 65.1326 25.8144 65.1326C26.3256 62.6899 26.8229 60.324 27.3381 57.8603C26.9323 57.8603 26.6419 57.8603 26.3515 57.8603C20.4733 57.8603 14.5952 57.8638 8.71704 57.8551C8.02479 57.8551 7.31862 57.8394 6.64626 57.7172C2.63599 56.9966 0.0102208 54.1247 0.00624235 50.4624C-0.00370375 41.3947 0.000274691 32.327 0.00425313 23.2593C0.00425313 18.7438 3.50329 15.673 8.64344 15.666C9.32972 15.666 10.014 15.666 10.75 15.666C10.75 15.3223 10.75 15.0641 10.75 14.8058C10.75 11.4925 10.7401 8.17911 10.754 4.86576C10.762 2.87495 11.9973 1.43026 14.1118 0.877161C14.2252 0.8475 14.3306 0.791667 14.44 0.748047C27.1472 0.748047 39.8523 0.748047 52.5595 0.748047C55.5393 1.81237 56.2514 2.75805 56.2514 5.65091C56.2514 8.74617 56.2514 11.8414 56.2514 14.9367C56.2514 15.1653 56.2514 15.3956 56.2514 15.666C57.077 15.666 57.7911 15.6643 58.5072 15.666C63.4604 15.6852 66.9912 18.7787 66.9952 23.1285C67.0032 32.2171 67.0012 41.3075 66.9893 50.3961C66.9893 51.0225 66.9296 51.6646 66.7665 52.2735C65.8594 55.6758 62.6508 57.8446 58.5092 57.8533C52.5575 57.8673 46.6037 57.8568 40.652 57.8568C40.3616 57.8568 40.0711 57.8568 39.6633 57.8568C40.1845 60.3379 40.6858 62.7213 41.1911 65.1291C42.3587 65.1291 43.4488 65.1099 44.5369 65.1343C45.5077 65.1553 46.1084 65.7747 46.0288 66.586C45.9712 67.1915 45.4917 67.4811 44.9646 67.7428L44.9666 67.748ZM13.7736 10.1525V48.3843H53.2179V10.1525H13.7736ZM63.9577 51.1254H2.99206C3.08556 51.4779 3.13727 51.7553 3.23276 52.024C3.9449 54.0375 5.9003 55.2396 8.50419 55.2414C25.1739 55.2449 41.8435 55.2431 58.5132 55.2414C58.736 55.2414 58.9588 55.2344 59.1816 55.2187C61.7198 55.0547 63.6513 53.4198 63.9577 51.1254ZM10.6923 48.4035V25.1367H3.0219V48.4035H10.6923ZM63.9716 48.3983V25.1315H56.2932V48.3983H63.9716ZM13.7498 7.4306H53.2179C53.2457 7.32417 53.2656 7.28055 53.2656 7.23867C53.2696 6.54076 53.2756 5.84458 53.2736 5.14667C53.2716 3.78398 52.7862 3.36523 51.2127 3.36523C39.4087 3.36523 27.6047 3.36523 15.8007 3.36523C15.6017 3.36523 15.4028 3.35826 15.2059 3.37047C14.4122 3.42107 13.8134 3.85378 13.7657 4.54995C13.702 5.49911 13.7498 6.45526 13.7498 7.4306ZM38.1535 65.1029C37.6642 62.7684 37.1947 60.5002 36.6954 58.2372C36.6636 58.0906 36.3931 57.8795 36.2319 57.8778C34.3004 57.8533 32.3689 57.8621 30.3757 57.8621C29.8644 60.2891 29.3612 62.6759 28.8479 65.1047H38.1555L38.1535 65.1029ZM10.6943 22.4498V18.3286C6.11315 17.9517 3.06765 19.6075 3.08754 22.4498H10.6943ZM56.2853 22.4445H63.9398C63.8244 20.5497 62.2171 18.8084 60.0727 18.449C58.8514 18.2448 57.5763 18.2919 56.2872 18.2239V22.4445H56.2853Z" fill="#FD6F00"/>
<path d="M15.606 32.2067C15.606 28.7852 15.6041 25.3636 15.606 21.9421C15.608 19.7559 16.9885 18.5397 19.4631 18.5363C21.5956 18.5328 23.728 18.5293 25.8605 18.5363C28.0566 18.545 29.5326 19.7751 29.5385 21.7083C29.5624 28.7258 29.5624 35.7434 29.5385 42.7609C29.5326 44.6959 28.0725 45.9225 25.8664 45.9347C23.6604 45.9469 21.4524 45.9504 19.2463 45.9347C17.0462 45.919 15.616 44.6645 15.61 42.733C15.5961 39.2242 15.606 35.7155 15.606 32.2067ZM26.5746 32.2887C26.5746 28.8689 26.5686 25.4474 26.5806 22.0276C26.5826 21.4623 26.4592 21.129 25.6814 21.1412C23.6007 21.1744 21.516 21.1674 19.4353 21.1447C18.7788 21.1377 18.574 21.3698 18.5759 21.9229C18.5879 28.8078 18.5899 35.6928 18.5759 42.576C18.5759 43.157 18.8405 43.335 19.4631 43.3297C21.4703 43.3105 23.4794 43.3245 25.4865 43.3228C26.5109 43.3228 26.5726 43.2669 26.5746 42.3561C26.5766 39.0009 26.5746 35.6457 26.5746 32.2904V32.2887Z" fill="white"/>
<path d="M41.6807 18.5363C43.6639 18.5363 45.6492 18.5293 47.6324 18.5381C49.7808 18.5485 51.2409 19.7873 51.2687 21.6769C51.3026 23.8771 51.3006 26.079 51.2687 28.281C51.2429 30.1444 49.8445 31.4094 47.714 31.4286C43.6719 31.467 39.6298 31.4687 35.5877 31.4286C33.4016 31.4076 32.019 30.0903 32.0131 28.1571C32.0071 26.0424 32.0071 23.9295 32.0131 21.8148C32.019 19.8187 33.4612 18.545 35.727 18.5363C37.7102 18.5293 39.6955 18.5363 41.6787 18.5363H41.6807ZM34.9909 24.7216C35.6454 24.2522 36.1626 23.8562 36.7096 23.4933C38.0484 22.6017 39.7233 22.6156 41.0402 23.5247C41.5076 23.8474 41.989 24.165 42.4008 24.5384C42.9399 25.0269 43.3795 24.9659 43.9086 24.5244C45.0703 23.5508 46.4131 23.3711 47.8891 23.9172C47.9965 23.9574 48.1118 23.9783 48.2988 24.0289C48.2988 23.2211 48.3028 22.4603 48.2988 21.7014C48.2949 21.2809 48.0144 21.1483 47.5708 21.15C43.6301 21.1552 39.6895 21.1552 35.7488 21.15C35.2118 21.15 34.985 21.3541 34.9929 21.82C35.0069 22.7343 34.9969 23.6485 34.9969 24.7216H34.9909ZM41.6151 28.8253C43.5466 28.8253 45.4801 28.841 47.4116 28.8096C47.6981 28.8044 48.2073 28.5985 48.2213 28.4554C48.269 27.9599 48.6091 27.3772 47.9308 26.9724C46.9375 26.3803 46.1312 26.3047 45.5119 26.7455C43.9922 27.8326 42.2814 27.8326 40.7716 26.7438C40.3499 26.4402 39.9182 26.1453 39.5303 25.8103C39.0728 25.416 38.6869 25.3986 38.1936 25.7877C37.3283 26.4699 36.3993 27.091 35.528 27.7697C35.3013 27.946 35.1879 28.2373 35.0228 28.4746C35.3371 28.5915 35.6494 28.8061 35.9677 28.8114C37.8495 28.8428 39.7332 28.8271 41.6151 28.8271V28.8253Z" fill="white"/>
<path d="M36.4053 16.1318C32.0648 16.1318 27.7243 16.1353 23.3838 16.13C22.244 16.13 21.6055 15.6729 21.5717 14.8773C21.5438 14.1951 22.0431 13.6507 22.8129 13.553C23.1054 13.5163 23.4057 13.5181 23.7041 13.5181C32.1881 13.5181 40.6702 13.5181 49.1542 13.5181C49.4506 13.5181 49.7529 13.5181 50.0434 13.5565C50.7535 13.6524 51.2369 14.1445 51.2628 14.7673C51.2906 15.4269 50.8291 15.9625 50.0931 16.0812C49.7788 16.1318 49.4526 16.13 49.1303 16.13C44.8893 16.1335 40.6463 16.1318 36.4053 16.13V16.1318Z" fill="#FD6F00"/>
<path d="M49.3748 4.14019C49.7209 4.14019 50.071 4.1175 50.4152 4.14542C51.1532 4.203 51.7002 4.70375 51.7579 5.33886C51.8116 5.93907 51.3839 6.57243 50.6837 6.64745C49.7846 6.74167 48.8536 6.74691 47.9545 6.65269C47.2125 6.57417 46.8147 5.95477 46.8823 5.29C46.946 4.6549 47.491 4.18904 48.2588 4.14193C48.6288 4.11925 49.0028 4.13844 49.3748 4.13844V4.14193V4.14019Z" fill="#FD6F00"/>
<path d="M22.5304 29.4027C21.9615 29.4027 21.3926 29.4236 20.8256 29.3974C19.9882 29.3573 19.3695 28.785 19.3735 28.0923C19.3775 27.3996 19.9961 26.8204 20.8376 26.7994C21.9973 26.7715 23.161 26.7698 24.3207 26.7994C25.1741 26.8221 25.7649 27.3892 25.7609 28.101C25.7569 28.8112 25.1621 29.359 24.3087 29.3957C23.7179 29.4219 23.1232 29.4009 22.5304 29.4009V29.4027Z" fill="white"/>
<path d="M22.6198 22.4218C23.1907 22.4218 23.7616 22.3991 24.3305 22.427C25.17 22.4689 25.7389 22.9853 25.7608 23.6745C25.7827 24.3672 25.2535 24.95 24.4181 24.9884C23.2066 25.0425 21.9872 25.0425 20.7758 24.9953C19.9085 24.9622 19.3336 24.3533 19.3734 23.6571C19.4112 22.9749 19.994 22.4811 20.8335 22.4218C20.8832 22.4183 20.933 22.4165 20.9827 22.4165C21.5277 22.4165 22.0748 22.4165 22.6198 22.4165C22.6198 22.4183 22.6198 22.42 22.6198 22.4218Z" fill="white"/>
<path d="M22.5303 33.7801C21.9594 33.7801 21.3865 33.8115 20.8196 33.7731C19.9404 33.712 19.3575 33.1624 19.3715 32.4627C19.3834 31.7596 19.9881 31.2152 20.8634 31.1943C22.0032 31.1664 23.147 31.1664 24.2868 31.1943C25.1661 31.2152 25.7549 31.7561 25.7628 32.4697C25.7708 33.1624 25.2317 33.6736 24.3903 33.7731C24.3167 33.7818 24.2431 33.7923 24.1675 33.7923C23.6224 33.7923 23.0754 33.7923 22.5303 33.7923C22.5303 33.7888 22.5303 33.7835 22.5303 33.7801Z" fill="white"/>
<path d="M22.6 39.9552C23.1709 39.9552 23.7418 39.9343 24.3107 39.9604C25.1541 40.0006 25.729 40.5048 25.7588 41.1923C25.7927 41.9094 25.2416 42.4939 24.3624 42.5305C23.1748 42.5794 21.9813 42.5794 20.7937 42.5322C19.9205 42.4974 19.3436 41.9059 19.3714 41.208C19.3993 40.5048 20.002 39.9918 20.8872 39.9587C21.4562 39.936 22.029 39.9552 22.598 39.9569L22.6 39.9552Z" fill="white"/>
</svg>
