<svg width="40" height="70" viewBox="0 0 40 70" fill="none" xmlns="http://www.w3.org/2000/svg">
<path d="M33.585 1.29492C35.3625 1.29492 36.8418 1.83786 37.877 2.87695C38.9118 3.91581 39.4522 5.39974 39.4531 7.18262V63.3496C39.4531 65.1105 38.9082 66.5846 37.877 67.6191C36.8455 68.6538 35.3751 69.2011 33.6182 69.2012H6.38184C4.62717 69.2011 3.15742 68.6518 2.12598 67.6162C1.09481 66.5807 0.548828 65.1059 0.548828 63.3457V36.3193L0.546875 36.3213V7.18066C0.546937 5.40009 1.08845 3.91677 2.12402 2.87793C3.15995 1.83885 4.64008 1.29492 6.41699 1.29492H33.585ZM3.08691 63.2549C3.08691 64.437 3.40071 65.2705 3.93945 65.8096C4.47822 66.3485 5.31128 66.6621 6.49316 66.6621H33.6562C33.8973 66.6621 34.0993 66.6674 34.3047 66.6543C35.7523 66.5536 36.9732 65.3989 37.0205 64.0459C37.0897 62.0307 37.0473 60.0206 37.041 57.9482H3.08691V63.2549ZM5.95215 3.84082H5.94824C4.57981 3.89247 3.40587 4.79943 3.21875 6.05273C3.13617 6.60753 3.12739 7.1819 3.14062 7.78516C3.1504 8.23076 3.17301 8.71434 3.18359 9.19531C4.60057 9.19636 6.01187 9.20125 7.42578 9.19141C7.74174 9.1894 8.09892 9.23262 8.39551 9.42578C8.72051 9.63749 8.89684 9.97791 8.93359 10.4033C8.96855 10.8085 8.82173 11.1708 8.50488 11.415C8.21159 11.641 7.81984 11.7302 7.41113 11.7344H3.125V55.3281H37V11.7344H13.9863C13.9523 11.7344 13.91 11.7376 13.8496 11.7432C13.7961 11.7481 13.7206 11.756 13.6494 11.7598C13.5292 11.7662 13.2778 11.7747 13.0635 11.6289L13.0615 11.6279C12.9109 11.5246 12.7266 11.3884 12.5664 11.2285C12.4125 11.0749 12.2388 10.8579 12.1748 10.5859V10.584C12.0887 10.2113 12.1916 9.86893 12.4258 9.61914C12.6455 9.38484 12.9534 9.25798 13.2578 9.21289C13.5233 9.1738 13.8316 9.19531 14.0049 9.19531H37.0508V7.17773C37.0508 6.04635 36.7352 5.22701 36.1992 4.69043C35.6631 4.1539 34.8442 3.83691 33.7139 3.83691H6.4082C6.23617 3.83691 6.0965 3.83421 5.95215 3.84082Z" fill="#FD6F00" stroke="#FD6F00" stroke-width="0.906582"/>
<path d="M20.0891 14.0049C24.1741 14.0049 28.259 14.0049 32.344 14.0049C33.3156 14.0049 33.5504 14.2373 33.5504 15.2015C33.5504 22.6681 33.5504 30.133 33.5504 37.5996C33.5504 38.5565 33.312 38.789 32.3367 38.789C24.1668 38.789 15.9951 38.789 7.82521 38.789C6.80989 38.789 6.58426 38.5656 6.58426 37.5578C6.58426 30.1148 6.58426 22.6718 6.58426 15.2287C6.58426 14.2246 6.80807 14.0049 7.83249 14.0049C11.9174 14.0049 16.0024 14.0049 20.0873 14.0049H20.0891ZM18.8609 26.3978C15.3018 23.153 11.8228 19.9789 8.27646 16.7468V36.0525C11.8374 32.804 15.32 29.6282 18.8609 26.3978ZM31.8964 16.7195C28.3136 19.9862 24.8182 23.1729 21.281 26.3978C24.8328 29.6354 28.3209 32.8167 31.8964 36.0761V16.7177V16.7195ZM9.54289 15.67C13.1311 18.9403 16.5937 22.0962 20.0746 25.2702C23.5955 22.058 27.049 18.9076 30.5954 15.67H9.54289ZM20.0709 27.5236C16.5428 30.7431 13.0911 33.8917 9.5538 37.1202H30.5935C27.0363 33.8754 23.5791 30.7231 20.0709 27.5236Z" fill="white"/>
<path d="M20 47.7789C16.0279 47.7789 12.0557 47.7789 8.08361 47.7789C7.85799 47.7789 7.56685 47.8479 7.41947 47.7353C7.15745 47.5374 6.81901 47.2269 6.81901 46.9618C6.81901 46.6985 7.15927 46.3862 7.41947 46.1883C7.56867 46.0757 7.85798 46.1465 8.08543 46.1465C16.0752 46.1465 24.0649 46.1465 32.0547 46.1465C32.2366 46.1465 32.4204 46.1338 32.5987 46.1556C33.0718 46.2119 33.3557 46.4951 33.3557 46.9636C33.3557 47.4303 33.07 47.7154 32.5987 47.7717C32.3968 47.7953 32.1912 47.7807 31.9855 47.7807C27.9898 47.7807 23.9958 47.7807 20 47.7807V47.7789Z" fill="#FD6F00"/>
<path d="M20.0255 51.8646C16.0534 51.8646 12.0812 51.8646 8.10909 51.8646C7.88164 51.8646 7.59597 51.9372 7.44313 51.8282C7.17565 51.6376 6.80264 51.318 6.82083 51.0783C6.84085 50.7878 7.19202 50.4864 7.46132 50.2648C7.58505 50.1631 7.85617 50.234 8.05996 50.234C16.0734 50.234 24.085 50.234 32.0984 50.234C32.2803 50.234 32.5169 50.1686 32.6315 50.2576C32.9081 50.4736 33.2684 50.7333 33.3339 51.0311C33.4303 51.4705 33.0955 51.7865 32.6242 51.8537C32.4241 51.8827 32.2166 51.8664 32.0128 51.8664C28.0171 51.8664 24.0231 51.8664 20.0273 51.8664L20.0255 51.8646Z" fill="#FD6F00"/>
<path d="M13.8025 43.557C11.8301 43.557 9.8595 43.5588 7.88708 43.557C7.16835 43.557 6.77714 43.2683 6.77168 42.7508C6.7644 42.2297 7.15743 41.9264 7.86707 41.9264C11.8337 41.9228 15.8004 41.9246 19.7671 41.9264C20.5095 41.9264 20.8716 42.197 20.8788 42.7308C20.8861 43.2574 20.5022 43.5552 19.7871 43.557C17.7928 43.5606 15.7986 43.557 13.8025 43.557Z" fill="#FD6F00"/>
<path d="M20.071 64.9093C18.4115 64.9238 16.9777 63.502 16.9722 61.8369C16.9686 60.1536 18.3369 58.7591 20.0273 58.7228C21.7177 58.6883 23.1661 60.1228 23.157 61.826C23.1497 63.5038 21.7559 64.8947 20.0691 64.9074L20.071 64.9093ZM21.5266 61.8242C21.5339 61.0543 20.8843 60.3843 20.111 60.3606C19.314 60.337 18.6189 61.0071 18.6117 61.8079C18.6044 62.5723 19.2558 63.2478 20.0273 63.275C20.8115 63.3023 21.5212 62.6177 21.5284 61.8242H21.5266Z" fill="white"/>
</svg>
