<svg width="70" height="70" viewBox="0 0 70 70" fill="none" xmlns="http://www.w3.org/2000/svg">
<path d="M27.2568 58.3442H65.4863V42.8716H27.2568V58.3442ZM4.4873 33.1997H42.7207V17.7271H4.4873V33.1997ZM48.085 8.08838H55.043V4.40088H48.085V8.08838ZM14.9707 8.07373H44.7012V4.39014H14.9707V8.07373ZM68.8408 60.4907L68.8076 60.561C68.6023 60.9911 68.3144 61.2915 67.9463 61.4761C67.6763 61.6114 67.3784 61.6765 67.0654 61.6987L66.748 61.7075C64.099 61.6744 61.4514 61.6948 58.7959 61.6948H58.3701C58.3668 63.3832 58.3433 64.9982 58.3857 66.6147C58.3971 67.0521 58.3353 67.4588 58.1553 67.8188C57.9728 68.1837 57.6816 68.4735 57.2783 68.6948L57.2021 68.7368H12.7969L12.7207 68.6958C12.3118 68.4731 12.0244 68.1802 11.8457 67.814C11.7141 67.5441 11.6484 67.248 11.624 66.9351L11.6123 66.6177C11.6333 56.7431 11.626 46.868 11.626 36.9927V36.5474C8.73311 36.5475 5.92365 36.549 3.11621 36.5474C2.50393 36.5473 1.98727 36.4258 1.63281 36.0669C1.27942 35.7088 1.16019 35.1882 1.16016 34.5718C1.15841 28.4898 1.15841 22.4076 1.16016 16.3257C1.16016 15.728 1.2818 15.2206 1.63281 14.8706C1.98372 14.521 2.49266 14.3999 3.0918 14.3989H11.626V13.9722C11.626 10.3722 11.6455 6.77953 11.6123 3.18408C11.6085 2.75196 11.6676 2.34529 11.8438 1.98486C12.0231 1.61801 12.3109 1.32473 12.7207 1.10303L12.7969 1.06201H56.7715V0.821777L57.2754 1.09619C57.6844 1.31896 57.9725 1.61229 58.1514 1.979C58.2832 2.24923 58.3491 2.54562 58.373 2.85889L58.3838 3.17725C58.3576 8.49746 58.3701 13.8158 58.3701 19.1382C58.3701 19.2897 58.3791 19.5004 58.3594 19.6958C58.2766 20.5702 57.6057 21.2248 56.7373 21.2339H56.7363C55.8411 21.2425 55.1215 20.5697 55.0801 19.6401V19.6392C55.0499 18.9334 55.0693 18.216 55.0693 17.5308V11.4741H14.9746V14.3931H43.9336C44.6397 14.3931 45.2174 14.4845 45.5967 14.8599C45.9771 15.2365 46.0703 15.8116 46.0703 16.5122V34.437C46.0703 35.1236 45.9704 35.6895 45.5986 36.0659C45.2254 36.4436 44.6621 36.5454 43.9805 36.5454H14.9746V65.396H55.0381V61.6919H26.1396C25.3865 61.6919 24.7779 61.6138 24.3906 61.2202C24.0056 60.8286 23.9297 60.2159 23.9297 59.4526V41.5942C23.9297 40.9325 24.0389 40.3824 24.4131 40.0132C24.7861 39.6454 25.3406 39.5376 26.0098 39.5376H55.0723V39.1636C55.0723 36.6344 55.069 34.1032 55.0742 31.5747C55.0744 31.1375 55.1676 30.7482 55.376 30.4341C55.5874 30.1154 55.8986 29.9028 56.2783 29.7905L56.4805 29.7437C56.9506 29.6641 57.4001 29.7951 57.7432 30.0854C58.1321 30.4146 58.3651 30.9301 58.3682 31.5239C58.3787 34.0546 58.3711 36.5861 58.3711 39.1128V39.5396H59.9062C62.1785 39.5396 64.4406 39.5642 66.7041 39.5259L67.0234 39.5337C67.337 39.5555 67.6331 39.6219 67.9043 39.7534C68.2711 39.9314 68.5674 40.2168 68.7959 40.6177L68.8408 40.6958V60.4907Z" fill="#FD6F00" stroke="#FD6F00" stroke-width="0.68185"/>
<path d="M56.6248 23.4858C57.7295 23.4332 58.678 24.307 58.7048 25.4165C58.7314 26.5153 57.8202 27.4526 56.7195 27.4526C55.6563 27.4526 54.7621 26.5724 54.7351 25.5132V25.5122C54.7085 24.445 55.5556 23.5368 56.6238 23.4858H56.6248Z" fill="#FD6F00" stroke="#FD6F00" stroke-width="1.3637"/>
<path d="M13.6647 21.0153C15.1244 21.0153 16.5823 21.01 18.042 21.017C19.0734 21.0222 19.5524 21.5055 19.5559 22.5454C19.5629 24.4837 19.5629 26.4203 19.5559 28.3587C19.5524 29.423 19.0647 29.908 17.9843 29.9097C15.1104 29.915 12.2365 29.915 9.3608 29.9097C8.27871 29.908 7.78574 29.4247 7.78225 28.3657C7.77525 26.4273 7.777 24.4907 7.78225 22.5523C7.78574 21.4846 8.26298 21.0188 9.35381 21.0153C10.7908 21.01 12.2277 21.0153 13.6647 21.0153ZM16.904 27.2648V23.6724H10.4464V27.2648H16.904Z" fill="white"/>
<path d="M31.347 23.6304C29.2563 23.6304 27.1673 23.6304 25.0765 23.6304C24.9017 23.6304 24.7269 23.6374 24.5538 23.627C23.7672 23.5746 23.2148 23.0181 23.227 22.2957C23.2375 21.5647 23.7899 21.0308 24.5958 21.0204C25.7932 21.0047 26.9907 21.0151 28.1882 21.0151C31.2579 21.0151 34.3276 21.0151 37.3973 21.0151C38.8343 21.0151 39.4583 21.4182 39.4426 22.3359C39.4269 23.2274 38.7993 23.6304 37.4218 23.6304C35.3974 23.6304 33.3731 23.6304 31.347 23.6304Z" fill="white"/>
<path d="M31.3663 27.2981C33.6091 27.2981 35.852 27.2894 38.0931 27.3033C38.8919 27.3086 39.4426 27.8616 39.4426 28.5962C39.4426 29.294 38.9112 29.8419 38.1612 29.9064C37.9882 29.9204 37.8134 29.9134 37.6385 29.9134C33.436 29.9134 29.2353 29.9134 25.0328 29.9134C24.9017 29.9134 24.7706 29.9169 24.6412 29.9134C23.8039 29.8803 23.2287 29.3446 23.227 28.6014C23.227 27.8459 23.7916 27.3068 24.6377 27.3033C26.8806 27.2929 29.1217 27.2998 31.3645 27.3016L31.3663 27.2981Z" fill="white"/>
<path d="M36.4148 55.0543C34.9552 55.0543 33.4972 55.0612 32.0375 55.0525C31.0464 55.0473 30.5569 54.5553 30.5516 53.5608C30.5429 51.6015 30.5446 49.6422 30.5516 47.6812C30.5551 46.6588 31.0533 46.1615 32.0847 46.1598C34.9814 46.1528 37.8763 46.1528 40.7729 46.1598C41.8375 46.1615 42.3218 46.6553 42.3253 47.7283C42.3305 49.6666 42.3323 51.6032 42.3253 53.5416C42.3218 54.5692 41.8323 55.0473 40.7922 55.0525C39.3325 55.0595 37.8745 55.0525 36.4148 55.0525V55.0543ZM33.1965 52.3901H39.6541V48.81H33.1965V52.3901Z" fill="white"/>
<path d="M54.0972 48.7751C51.9207 48.7751 49.7426 48.7786 47.5661 48.7751C46.5977 48.7734 46.0138 48.2918 45.9963 47.4997C45.9789 46.6937 46.5977 46.1616 47.5801 46.1616C51.9347 46.1581 56.2893 46.1581 60.6421 46.1616C61.6001 46.1616 62.1945 46.6605 62.212 47.4474C62.2294 48.2604 61.6246 48.7734 60.6299 48.7751C58.4535 48.7786 56.2753 48.7751 54.0989 48.7751H54.0972Z" fill="white"/>
<path d="M54.1111 55.0561C51.9347 55.0561 49.7565 55.0579 47.5801 55.0561C46.5802 55.0561 45.9805 54.5467 45.9963 53.7301C46.012 52.9485 46.6134 52.4426 47.5643 52.4426C51.9399 52.4391 56.3155 52.4391 60.6928 52.4426C61.5494 52.4426 62.1053 52.877 62.2032 53.5836C62.2888 54.1942 61.8955 54.8241 61.2871 54.9933C61.0616 55.0561 60.8134 55.0544 60.5757 55.0544C58.4202 55.0579 56.2648 55.0561 54.1093 55.0561H54.1111Z" fill="white"/>
</svg>
