<svg width="68" height="68" viewBox="0 0 68 68" fill="none" xmlns="http://www.w3.org/2000/svg">
<path d="M42.1408 45.5861C40.1814 45.5861 38.222 45.5931 36.2646 45.5844C33.9392 45.5739 32.5189 44.3159 32.513 42.2745C32.509 40.1616 32.505 38.0469 32.513 35.9339C32.5209 34.0112 33.9512 32.7131 36.1254 32.7043C40.1416 32.6851 44.1598 32.6851 48.1761 32.7043C50.2966 32.7148 51.7348 33.9571 51.7646 35.8153C51.8004 38.0382 51.8004 40.261 51.7646 42.4839C51.7328 44.3404 50.2886 45.5669 48.1641 45.5844C46.155 45.6018 44.1479 45.5879 42.1388 45.5896L42.1408 45.5861ZM46.8035 42.9707C47.2053 42.9707 47.5017 42.9707 47.7981 42.9707C48.7251 42.9637 48.7987 42.9026 48.7987 42.0617C48.8027 40.0778 48.7848 38.0923 48.8086 36.1084C48.8166 35.5204 48.5739 35.3006 47.8936 35.3041C44.0723 35.3233 40.251 35.3233 36.4317 35.3041C35.7236 35.3006 35.465 35.5169 35.4769 36.1433C35.5087 37.9527 35.4888 39.762 35.4888 41.5731C35.4888 43.0527 35.5107 43.0701 37.1976 42.962C37.2672 42.9567 37.3348 42.9271 37.4781 42.8887C37.5357 41.5103 37.2672 40.0534 38.5224 38.8931C39.7935 37.7171 41.4107 37.7974 43.028 37.834C43.9788 37.855 44.8103 38.1498 45.5344 38.7012C47.0263 39.8405 46.8055 41.3934 46.8035 42.9707ZM43.8217 42.9463C43.8217 42.3269 43.8416 41.765 43.8157 41.205C43.7918 40.7094 43.4338 40.4024 42.8987 40.4634C42.0891 40.5576 40.9652 39.9871 40.5613 41.02C40.3385 41.5906 40.5216 42.285 40.5216 42.9463H43.8237H43.8217Z" fill="white"/>
<path d="M16.1138 14.4694C16.1138 13.7436 16.7424 13.1853 17.566 13.1783C18.3815 13.1713 19.0499 13.7314 19.0738 14.4363C19.0977 15.1586 18.3994 15.7745 17.566 15.7658C16.7524 15.7571 16.1138 15.1883 16.1138 14.4677V14.4694Z" fill="#FD6F00"/>
<path d="M23.128 35.2063C23.6472 35.2063 24.1664 35.1959 24.6855 35.2081C25.6404 35.2325 26.2709 35.7681 26.261 36.5289C26.2511 37.2617 25.6324 37.7991 24.7213 37.8148C23.6094 37.834 22.4974 37.8357 21.3854 37.8148C20.5022 37.7956 19.8597 37.2128 19.8716 36.4975C19.8836 35.7804 20.5281 35.2447 21.4232 35.2081C21.4729 35.2063 21.5227 35.2081 21.5724 35.2081C22.0916 35.2081 22.6108 35.2081 23.13 35.2081L23.128 35.2063Z" fill="white"/>
<path d="M45.4666 67.396H22.5369C21.5999 66.904 21.2956 66.405 21.5084 65.7193C21.7054 65.0911 22.3021 64.7823 23.3345 64.7806C24.3172 64.7806 25.2999 64.7806 26.3144 64.7806C26.8256 62.3378 27.3229 59.9719 27.8381 57.5083C27.4323 57.5083 27.1419 57.5083 26.8515 57.5083C20.9733 57.5083 15.0952 57.5117 9.21704 57.503C8.52479 57.503 7.81862 57.4873 7.14626 57.3652C3.13599 56.6446 0.510221 53.7727 0.506242 50.1103C0.496296 41.0427 0.500275 31.975 0.504253 22.9073C0.504253 18.3918 4.00329 15.3209 9.14344 15.314C9.82972 15.314 10.514 15.314 11.25 15.314C11.25 14.9702 11.25 14.712 11.25 14.4538C11.25 11.1404 11.2401 7.82706 11.254 4.5137C11.262 2.5229 12.4973 1.07821 14.6118 0.525111C14.7252 0.495449 14.8306 0.439616 14.94 0.395996C27.6472 0.395996 40.3523 0.395996 53.0595 0.395996C56.0393 1.46032 56.7514 2.406 56.7514 5.29886C56.7514 8.39412 56.7514 11.4894 56.7514 14.5846C56.7514 14.8132 56.7514 15.0435 56.7514 15.314C57.577 15.314 58.2911 15.3122 59.0072 15.314C63.9604 15.3332 67.4912 18.4267 67.4952 22.7764C67.5032 31.8651 67.5012 40.9554 67.4893 50.044C67.4893 50.6704 67.4296 51.3125 67.2665 51.9214C66.3594 55.3238 63.1508 57.4926 59.0092 57.5013C53.0575 57.5152 47.1037 57.5048 41.152 57.5048C40.8616 57.5048 40.5711 57.5048 40.1633 57.5048C40.6845 59.9859 41.1858 62.3693 41.6911 64.7771C42.8587 64.7771 43.9488 64.7579 45.0369 64.7823C46.0077 64.8032 46.6084 65.4226 46.5288 66.234C46.4712 66.8394 45.9917 67.129 45.4646 67.3908L45.4666 67.396ZM14.2736 9.80042V48.0323H53.7179V9.80042H14.2736ZM64.4577 50.7734H3.49206C3.58556 51.1258 3.63727 51.4032 3.73276 51.6719C4.4449 53.6854 6.4003 54.8876 9.00419 54.8893C25.6739 54.8928 42.3435 54.8911 59.0132 54.8893C59.236 54.8893 59.4588 54.8824 59.6816 54.8666C62.2198 54.7026 64.1513 53.0678 64.4577 50.7734ZM11.1923 48.0515V24.7847H3.5219V48.0515H11.1923ZM64.4716 48.0463V24.7795H56.7932V48.0463H64.4716ZM14.2498 7.07855H53.7179C53.7457 6.97212 53.7656 6.9285 53.7656 6.88662C53.7696 6.1887 53.7756 5.49253 53.7736 4.79462C53.7716 3.43193 53.2862 3.01318 51.7127 3.01318C39.9087 3.01318 28.1047 3.01318 16.3007 3.01318C16.1017 3.01318 15.9028 3.0062 15.7059 3.01842C14.9122 3.06902 14.3134 3.50173 14.2657 4.1979C14.202 5.14706 14.2498 6.10321 14.2498 7.07855ZM38.6535 64.7509C38.1642 62.4164 37.6947 60.1481 37.1954 57.8851C37.1636 57.7386 36.8931 57.5275 36.7319 57.5257C34.8004 57.5013 32.8689 57.51 30.8757 57.51C30.3644 59.937 29.8612 62.3239 29.3479 64.7526H38.6555L38.6535 64.7509ZM11.1943 22.0977V17.9765C6.61315 17.5996 3.56765 19.2554 3.58754 22.0977H11.1943ZM56.7853 22.0925H64.4398C64.3244 20.1976 62.7171 18.4563 60.5727 18.0969C59.3514 17.8928 58.0763 17.9399 56.7872 17.8718V22.0925H56.7853Z" fill="#FD6F00"/>
<path d="M16.106 31.8546C16.106 28.4331 16.1041 25.0116 16.106 21.59C16.108 19.4038 17.4885 18.1877 19.9631 18.1842C22.0956 18.1807 24.228 18.1772 26.3605 18.1842C28.5566 18.1929 30.0326 19.423 30.0385 21.3562C30.0624 28.3738 30.0624 35.3913 30.0385 42.4089C30.0326 44.3439 28.5725 45.5705 26.3664 45.5827C24.1604 45.5949 21.9524 45.5984 19.7463 45.5827C17.5462 45.567 16.116 44.3125 16.11 42.381C16.0961 38.8722 16.106 35.3634 16.106 31.8546ZM27.0746 31.9367C27.0746 28.5169 27.0686 25.0953 27.0806 21.6755C27.0826 21.1102 26.9592 20.777 26.1814 20.7892C24.1007 20.8223 22.016 20.8154 19.9353 20.7927C19.2788 20.7857 19.074 21.0177 19.0759 21.5708C19.0879 28.4558 19.0899 35.3407 19.0759 42.2239C19.0759 42.805 19.3405 42.9829 19.9631 42.9777C21.9703 42.9585 23.9794 42.9725 25.9865 42.9707C27.0109 42.9707 27.0726 42.9149 27.0746 42.0041C27.0766 38.6489 27.0746 35.2936 27.0746 31.9384V31.9367Z" fill="white"/>
<path d="M42.1807 18.1843C44.1639 18.1843 46.1492 18.1773 48.1324 18.186C50.2808 18.1965 51.7409 19.4353 51.7687 21.3249C51.8026 23.5251 51.8006 25.727 51.7687 27.9289C51.7429 29.7924 50.3445 31.0573 48.214 31.0765C44.1719 31.1149 40.1298 31.1166 36.0877 31.0765C33.9016 31.0556 32.519 29.7383 32.5131 27.805C32.5071 25.6903 32.5071 23.5774 32.5131 21.4627C32.519 19.4667 33.9612 18.193 36.227 18.1843C38.2102 18.1773 40.1955 18.1843 42.1787 18.1843H42.1807ZM35.4909 24.3695C36.1454 23.9002 36.6626 23.5041 37.2096 23.1412C38.5484 22.2496 40.2233 22.2636 41.5402 23.1726C42.0076 23.4954 42.489 23.813 42.9008 24.1863C43.4399 24.6749 43.8795 24.6138 44.4086 24.1724C45.5703 23.1988 46.9131 23.0191 48.3891 23.5652C48.4965 23.6053 48.6118 23.6263 48.7988 23.6769C48.7988 22.869 48.8028 22.1083 48.7988 21.3493C48.7949 20.9288 48.5144 20.7962 48.0708 20.798C44.1301 20.8032 40.1895 20.8032 36.2488 20.798C35.7118 20.798 35.485 21.0021 35.4929 21.468C35.5069 22.3822 35.4969 23.2965 35.4969 24.3695H35.4909ZM42.1151 28.4733C44.0466 28.4733 45.9801 28.489 47.9116 28.4576C48.1981 28.4524 48.7073 28.2465 48.7213 28.1034C48.769 27.6079 49.1091 27.0251 48.4308 26.6203C47.4375 26.0283 46.6312 25.9526 46.0119 26.3935C44.4922 27.4805 42.7814 27.4805 41.2716 26.3918C40.8499 26.0882 40.4182 25.7933 40.0303 25.4583C39.5728 25.064 39.1869 25.0465 38.6936 25.4356C37.8283 26.1178 36.8993 26.739 36.028 27.4177C35.8013 27.5939 35.6879 27.8853 35.5228 28.1226C35.8371 28.2395 36.1494 28.4541 36.4677 28.4593C38.3495 28.4907 40.2332 28.475 42.1151 28.475V28.4733Z" fill="white"/>
<path d="M36.9053 15.78C32.5648 15.78 28.2243 15.7835 23.8838 15.7782C22.744 15.7782 22.1055 15.3211 22.0717 14.5255C22.0438 13.8433 22.5431 13.2989 23.3129 13.2012C23.6054 13.1645 23.9057 13.1663 24.2041 13.1663C32.6881 13.1663 41.1702 13.1663 49.6542 13.1663C49.9506 13.1663 50.2529 13.1663 50.5434 13.2047C51.2535 13.3006 51.7369 13.7927 51.7628 14.4155C51.7906 15.0751 51.3291 15.6107 50.5931 15.7294C50.2788 15.78 49.9526 15.7782 49.6303 15.7782C45.3893 15.7817 41.1463 15.78 36.9053 15.7782V15.78Z" fill="#FD6F00"/>
<path d="M49.8748 3.78789C50.2209 3.78789 50.571 3.76521 50.9152 3.79313C51.6532 3.8507 52.2002 4.35146 52.2579 4.98656C52.3116 5.58677 51.8839 6.22013 51.1837 6.29516C50.2846 6.38938 49.3536 6.39461 48.4545 6.30039C47.7125 6.22188 47.3147 5.60248 47.3823 4.93771C47.446 4.30261 47.991 3.83675 48.7588 3.78964C49.1288 3.76695 49.5028 3.78615 49.8748 3.78615V3.78964V3.78789Z" fill="#FD6F00"/>
<path d="M23.0304 29.0506C22.4615 29.0506 21.8926 29.0715 21.3256 29.0454C20.4882 29.0052 19.8695 28.433 19.8735 27.7403C19.8775 27.0476 20.4961 26.4683 21.3376 26.4474C22.4973 26.4195 23.661 26.4177 24.8207 26.4474C25.6741 26.4701 26.2649 27.0371 26.2609 27.749C26.2569 28.4591 25.6621 29.007 24.8087 29.0436C24.2179 29.0698 23.6232 29.0489 23.0304 29.0489V29.0506Z" fill="white"/>
<path d="M23.1198 22.07C23.6907 22.07 24.2616 22.0473 24.8305 22.0752C25.67 22.1171 26.2389 22.6335 26.2608 23.3227C26.2827 24.0154 25.7535 24.5982 24.9181 24.6366C23.7066 24.6906 22.4872 24.6906 21.2758 24.6435C20.4085 24.6104 19.8336 24.0015 19.8734 23.3053C19.9112 22.6231 20.494 22.1293 21.3335 22.07C21.3832 22.0665 21.433 22.0647 21.4827 22.0647C22.0277 22.0647 22.5748 22.0647 23.1198 22.0647C23.1198 22.0665 23.1198 22.0682 23.1198 22.07Z" fill="white"/>
<path d="M23.0303 33.4283C22.4594 33.4283 21.8865 33.4597 21.3196 33.4213C20.4404 33.3602 19.8575 32.8106 19.8715 32.1109C19.8834 31.4078 20.4881 30.8634 21.3634 30.8425C22.5032 30.8146 23.647 30.8146 24.7868 30.8425C25.6661 30.8634 26.2549 31.4043 26.2628 32.1179C26.2708 32.8106 25.7317 33.3218 24.8903 33.4213C24.8167 33.43 24.7431 33.4405 24.6675 33.4405C24.1224 33.4405 23.5754 33.4405 23.0303 33.4405C23.0303 33.437 23.0303 33.4317 23.0303 33.4283Z" fill="white"/>
<path d="M23.1 39.6034C23.6709 39.6034 24.2418 39.5825 24.8107 39.6086C25.6541 39.6488 26.229 40.153 26.2588 40.8404C26.2927 41.5576 25.7416 42.1421 24.8624 42.1787C23.6748 42.2276 22.4813 42.2276 21.2937 42.1804C20.4205 42.1455 19.8436 41.5541 19.8714 40.8561C19.8993 40.153 20.502 39.64 21.3872 39.6069C21.9562 39.5842 22.529 39.6034 23.098 39.6051L23.1 39.6034Z" fill="white"/>
</svg>
