<svg width="41" height="70" viewBox="0 0 41 70" fill="none" xmlns="http://www.w3.org/2000/svg">
<path d="M34.085 0.942871C35.8625 0.942874 37.3418 1.4858 38.377 2.5249C39.4118 3.56375 39.9522 5.04769 39.9531 6.83057V62.9976C39.9531 64.7585 39.4082 66.2325 38.377 67.2671C37.3455 68.3017 35.8751 68.849 34.1182 68.8491H6.88184C5.12717 68.849 3.65742 68.2998 2.62598 67.2642C1.59481 66.2287 1.04883 64.7539 1.04883 62.9937V35.9673L1.04688 35.9692V6.82861C1.04694 5.04804 1.58845 3.56472 2.62402 2.52588C3.65995 1.4868 5.14008 0.942871 6.91699 0.942871H34.085ZM3.58691 62.9028C3.58691 64.0849 3.90071 64.9185 4.43945 65.4575C4.97822 65.9965 5.81128 66.31 6.99316 66.3101H34.1562C34.3973 66.3101 34.5993 66.3153 34.8047 66.3022C36.2523 66.2016 37.4732 65.0469 37.5205 63.6938C37.5897 61.6786 37.5473 59.6686 37.541 57.5962H3.58691V62.9028ZM6.45215 3.48877H6.44824C5.07981 3.54042 3.90587 4.44738 3.71875 5.70068C3.63617 6.25548 3.62739 6.82985 3.64062 7.43311C3.6504 7.87871 3.67301 8.36229 3.68359 8.84326C5.10057 8.8443 6.51187 8.8492 7.92578 8.83936C8.24174 8.83735 8.59892 8.88057 8.89551 9.07373C9.22051 9.28544 9.39684 9.62586 9.43359 10.0513C9.46855 10.4565 9.32173 10.8188 9.00488 11.063C8.71159 11.289 8.31984 11.3782 7.91113 11.3823H3.625V54.9761H37.5V11.3823H14.4863C14.4523 11.3823 14.41 11.3855 14.3496 11.3911C14.2961 11.3961 14.2206 11.4039 14.1494 11.4077C14.0292 11.4141 13.7778 11.4227 13.5635 11.2769L13.5615 11.2759C13.4109 11.1725 13.2266 11.0363 13.0664 10.8765C12.9125 10.7229 12.7388 10.5059 12.6748 10.2339V10.2319C12.5887 9.85921 12.6916 9.51688 12.9258 9.26709C13.1455 9.03279 13.4534 8.90593 13.7578 8.86084C14.0233 8.82175 14.3316 8.84326 14.5049 8.84326H37.5508V6.82568C37.5508 5.69429 37.2352 4.87496 36.6992 4.33838C36.1631 3.80185 35.3442 3.48486 34.2139 3.48486H6.9082C6.73617 3.48486 6.5965 3.48216 6.45215 3.48877Z" fill="#FD6F00" stroke="#FD6F00" stroke-width="0.906582"/>
<path d="M20.5891 13.6526C24.6741 13.6526 28.759 13.6526 32.844 13.6526C33.8156 13.6526 34.0504 13.885 34.0504 14.8492C34.0504 22.3158 34.0504 29.7807 34.0504 37.2473C34.0504 38.2042 33.812 38.4367 32.8367 38.4367C24.6668 38.4367 16.4951 38.4367 8.32521 38.4367C7.30989 38.4367 7.08426 38.2133 7.08426 37.2055C7.08426 29.7625 7.08426 22.3195 7.08426 14.8764C7.08426 13.8723 7.30807 13.6526 8.33249 13.6526C12.4174 13.6526 16.5024 13.6526 20.5873 13.6526H20.5891ZM19.3609 26.0455C15.8018 22.8007 12.3228 19.6266 8.77646 16.3945V35.7002C12.3374 32.4517 15.82 29.2759 19.3609 26.0455ZM32.3964 16.3672C28.8136 19.6339 25.3182 22.8206 21.781 26.0455C25.3328 29.2831 28.8209 32.4644 32.3964 35.7238V16.3654V16.3672ZM10.0429 15.3177C13.6311 18.588 17.0937 21.7439 20.5746 24.9179C24.0955 21.7057 27.549 18.5553 31.0954 15.3177H10.0429ZM20.5709 27.1713C17.0428 30.3908 13.5911 33.5394 10.0538 36.7679H31.0935C27.5363 33.5231 24.0791 30.3708 20.5709 27.1713Z" fill="white"/>
<path d="M20.5 47.4269C16.5279 47.4269 12.5557 47.4269 8.58361 47.4269C8.35799 47.4269 8.06685 47.4959 7.91947 47.3833C7.65745 47.1854 7.31901 46.8749 7.31901 46.6097C7.31901 46.3465 7.65927 46.0341 7.91947 45.8362C8.06867 45.7236 8.35798 45.7944 8.58543 45.7944C16.5752 45.7944 24.5649 45.7944 32.5547 45.7944C32.7366 45.7944 32.9204 45.7817 33.0987 45.8035C33.5718 45.8598 33.8557 46.1431 33.8557 46.6116C33.8557 47.0782 33.57 47.3633 33.0987 47.4196C32.8968 47.4432 32.6912 47.4287 32.4855 47.4287C28.4898 47.4287 24.4958 47.4287 20.5 47.4287V47.4269Z" fill="#FD6F00"/>
<path d="M20.5255 51.5125C16.5534 51.5125 12.5812 51.5125 8.60909 51.5125C8.38164 51.5125 8.09597 51.5851 7.94313 51.4762C7.67565 51.2855 7.30264 50.966 7.32083 50.7263C7.34085 50.4357 7.69202 50.1343 7.96132 49.9128C8.08505 49.8111 8.35617 49.8819 8.55996 49.8819C16.5734 49.8819 24.585 49.8819 32.5984 49.8819C32.7803 49.8819 33.0169 49.8165 33.1315 49.9055C33.4081 50.1216 33.7684 50.3813 33.8339 50.679C33.9303 51.1185 33.5955 51.4344 33.1242 51.5016C32.9241 51.5307 32.7166 51.5143 32.5128 51.5143C28.5171 51.5143 24.5231 51.5143 20.5273 51.5143L20.5255 51.5125Z" fill="#FD6F00"/>
<path d="M14.3025 43.2052C12.3301 43.2052 10.3595 43.207 8.38708 43.2052C7.66835 43.2052 7.27714 42.9165 7.27168 42.399C7.2644 41.8778 7.65743 41.5746 8.36707 41.5746C12.3337 41.571 16.3004 41.5728 20.2671 41.5746C21.0095 41.5746 21.3716 41.8452 21.3788 42.379C21.3861 42.9056 21.0022 43.2034 20.2871 43.2052C18.2928 43.2088 16.2986 43.2052 14.3025 43.2052Z" fill="#FD6F00"/>
<path d="M20.571 64.5572C18.9115 64.5717 17.4777 63.15 17.4722 61.4849C17.4686 59.8016 18.8369 58.407 20.5273 58.3707C22.2177 58.3362 23.6661 59.7707 23.657 61.474C23.6497 63.1518 22.2559 64.5427 20.5691 64.5554L20.571 64.5572ZM22.0266 61.4721C22.0339 60.7022 21.3843 60.0322 20.611 60.0086C19.814 59.985 19.1189 60.655 19.1117 61.4558C19.1044 62.2203 19.7558 62.8957 20.5273 62.923C21.3115 62.9502 22.0212 62.2657 22.0284 61.4721H22.0266Z" fill="white"/>
</svg>
